<svg class="main-svg" xmlns="http://www.w3.org/2000/svg" xmlns:xlink="http://www.w3.org/1999/xlink" width="4200" height="1950" style="" viewBox="0 0 1400 650"><rect x="0" y="0" width="1400" height="650" style="fill: rgb(255, 255, 255); fill-opacity: 1;"/><defs id="defs-8caaaf"><g class="clips"><clipPath id="clip8caaafxyplot" class="plotclip"><rect width="1240" height="470"/></clipPath><clipPath class="axesclip" id="clip8caaafx"><rect x="80" y="0" width="1240" height="650"/></clipPath><clipPath class="axesclip" id="clip8caaafy"><rect x="0" y="100" width="1400" height="470"/></clipPath><clipPath class="axesclip" id="clip8caaafxy"><rect x="80" y="100" width="1240" height="470"/></clipPath></g><g class="gradients"/><g class="patterns"/></defs><g class="bglayer"/><g class="layer-below"><g class="imagelayer"/><g class="shapelayer"/></g><g class="cartesianlayer"><g class="subplot xy"><g class="layer-subplot"><g class="shapelayer"/><g class="imagelayer"/></g><g class="minor-gridlayer"><g class="x"/><g class="y"/></g><g class="gridlayer"><g class="x"><path class="xgrid crisp" transform="translate(202.84,0)" d="M0,100v470" style="stroke: rgb(235, 240, 248); stroke-opacity: 1; stroke-width: 1px;"/><path class="xgrid crisp" transform="translate(327.86,0)" d="M0,100v470" style="stroke: rgb(235, 240, 248); stroke-opacity: 1; stroke-width: 1px;"/><path class="xgrid crisp" transform="translate(450.84,0)" d="M0,100v470" style="stroke: rgb(235, 240, 248); stroke-opacity: 1; stroke-width: 1px;"/><path class="xgrid crisp" transform="translate(575.86,0)" d="M0,100v470" style="stroke: rgb(235, 240, 248); stroke-opacity: 1; stroke-width: 1px;"/><path class="xgrid crisp" transform="translate(698.84,0)" d="M0,100v470" style="stroke: rgb(235, 240, 248); stroke-opacity: 1; stroke-width: 1px;"/><path class="xgrid crisp" transform="translate(823.86,0)" d="M0,100v470" style="stroke: rgb(235, 240, 248); stroke-opacity: 1; stroke-width: 1px;"/><path class="xgrid crisp" transform="translate(946.84,0)" d="M0,100v470" style="stroke: rgb(235, 240, 248); stroke-opacity: 1; stroke-width: 1px;"/><path class="xgrid crisp" transform="translate(1071.8600000000001,0)" d="M0,100v470" style="stroke: rgb(235, 240, 248); stroke-opacity: 1; stroke-width: 1px;"/><path class="xgrid crisp" transform="translate(1195.52,0)" d="M0,100v470" style="stroke: rgb(235, 240, 248); stroke-opacity: 1; stroke-width: 1px;"/></g><g class="y"><path class="ygrid crisp" transform="translate(0,511.28)" d="M80,0h1240" style="stroke: rgb(235, 240, 248); stroke-opacity: 1; stroke-width: 1px;"/><path class="ygrid crisp" transform="translate(0,446.65)" d="M80,0h1240" style="stroke: rgb(235, 240, 248); stroke-opacity: 1; stroke-width: 1px;"/><path class="ygrid crisp" transform="translate(0,382.02)" d="M80,0h1240" style="stroke: rgb(235, 240, 248); stroke-opacity: 1; stroke-width: 1px;"/><path class="ygrid crisp" transform="translate(0,317.39)" d="M80,0h1240" style="stroke: rgb(235, 240, 248); stroke-opacity: 1; stroke-width: 1px;"/><path class="ygrid crisp" transform="translate(0,252.76)" d="M80,0h1240" style="stroke: rgb(235, 240, 248); stroke-opacity: 1; stroke-width: 1px;"/><path class="ygrid crisp" transform="translate(0,188.13)" d="M80,0h1240" style="stroke: rgb(235, 240, 248); stroke-opacity: 1; stroke-width: 1px;"/></g></g><g class="zerolinelayer"><path class="yzl zl crisp" transform="translate(0,123.5)" d="M80,0h1240" style="stroke: rgb(235, 240, 248); stroke-opacity: 1; stroke-width: 2px;"/></g><g class="layer-between"><g class="shapelayer"/><g class="imagelayer"/></g><path class="xlines-below"/><path class="ylines-below"/><g class="overlines-below"/><g class="xaxislayer-below"/><g class="yaxislayer-below"/><g class="overaxes-below"/><g class="overplot"><g class="xy" transform="translate(80,100)" clip-path="url(#clip8caaafxyplot)"><g class="scatterlayer mlayer"><g class="trace scatter tracea95652" style="stroke-miterlimit: 2; opacity: 1;"><g class="fills"/><g class="errorbars"/><g class="lines"><path class="js-line" d="M0,23.5L0.68,30.08L2.72,32.85L3.4,34.69L4.08,40.22L4.76,25.21L5.44,35.81L7.47,28.17L8.15,35.21L10.19,23.5L12.91,23.5L14.27,23.5L14.95,40.5L16.99,54.12L17.67,38.25L18.35,75.99L19.02,60.12L19.7,82.37L21.74,69.62L23.1,46.87L23.78,53.37L24.46,48.25L26.5,23.5L32.61,23.5L33.29,41.39L33.97,85.17L36.01,130.81L37.37,148.7L38.05,186.88L38.73,170.75L40.77,149.03L41.45,157.15L42.13,119.95L42.81,141.9L43.48,136.63L45.49,195L46.17,171.85L46.85,168.34L47.53,241.75L48.21,188.24L50.25,245.04L50.93,210.26L51.61,240.54L52.29,232.86L52.97,235.24L55.01,212.89L55.69,162.63L56.37,180.08L57.05,148.59L57.73,158.68L59.76,144.64L61.12,190.72L61.8,181.62L62.48,202.47L64.52,148.37L65.2,147.93L65.88,134.43L66.56,138.93L69.28,110.84L70.63,66.4L71.31,44.9L71.99,48.74L74.03,44.68L74.71,89.12L75.39,56.2L76.07,56.42L76.75,53.35L78.79,49.94L79.47,60.7L81.51,122.47L83.54,93.07L84.9,97.46L85.58,99.76L88.3,58.17L88.98,79.9L89.66,97.24L90.34,71.67L91.02,75.07L93.06,70.68L94.42,51.04L95.09,70.13L95.77,64.43L98.49,86.15L99.17,91.09L99.85,102.06L100.53,79.46L102.57,81.33L103.25,82.31L103.93,91.2L104.61,92.3L105.29,87.14L107.33,88.57L108,51.04L108.68,39.52L109.36,90.1L110.04,82.75L112.08,69.81L112.76,72.22L113.44,71.23L114.12,76.83L114.8,74.74L116.84,68.93L117.52,77.38L119.56,120.06L121.59,118.09L122.27,92.52L122.95,92.85L123.63,95.48L126.35,83.85L127.03,89.01L127.71,83.52L128.39,41.55L129.07,56.64L131.11,81.77L132.46,62.56L133.14,67.17L133.82,65.85L135.86,39.3L136.54,44.35L137.22,23.5L137.9,46.72L138.58,23.5L140.62,27.5L141.3,40.17L142.66,23.5L143.34,29.86L145.37,27.88L146.05,23.5L147.41,23.5L148.09,37.36L150.13,56.82L150.81,96.77L151.49,54.06L152.17,59.8L152.85,63.82L154.89,55.48L156.25,65.39L156.93,52.87L157.6,45.12L159.64,50.56L160.32,26.18L161,28.64L161.68,45.19L162.36,32.15L164.4,23.5L165.08,23.5L165.76,37.24L167.12,94.8L169.83,118.08L170.51,95.51L171.19,116.05L171.87,134.56L173.91,123.62L174.59,116.4L175.27,132.31L175.95,133.09L176.63,144.44L178.67,123.34L179.35,125.02L180.03,145.85L180.71,138.2L181.39,122.53L183.42,112.54L185.46,74.82L186.14,96.28L188.18,65.78L188.86,77.49L189.54,61.99L190.22,63.25L190.9,87.16L192.94,78.82L193.62,71.88L194.97,86.95L195.65,86.67L197.69,94.87L198.37,97.96L199.05,114.51L199.73,112.96L200.41,95.15L202.45,93.26L203.13,116.75L203.81,134.14L204.49,122.78L205.17,141.92L207.23,146.06L207.91,132.88L208.59,99.43L209.95,67.67L211.99,87.02L212.67,122.99L213.35,99.92L214.03,96L214.71,98.87L216.75,82.74L217.42,85.34L218.1,91.09L218.78,70.05L219.46,76.36L221.5,71.67L222.18,73.35L222.86,61.85L224.22,58.28L226.26,23.5L227.62,23.5L228.3,33.36L228.98,23.5L231.01,23.5L231.69,31.4L232.37,52.63L233.05,40.06L233.73,40.13L235.77,23.5L236.45,23.5L237.13,25.3L237.81,25.36L238.49,31.49L241.88,60.57L242.56,58.84L245.28,60.23L245.96,66.75L246.64,55.64L247.32,59.5L250.04,55.58L250.72,52.45L251.4,68.68L252.08,36.54L252.76,40.4L254.79,23.5L257.51,83.58L260.23,75.34L260.91,79.99L261.59,61.51L262.27,53.14L264.31,44.23L264.99,40.38L265.67,79.39L267.02,100.66L269.06,87.23L269.74,79.26L270.42,85.7L271.78,85.64L273.82,61.91L274.5,65.63L275.18,56.06L275.86,54L276.54,46.63L279.25,61.98L279.93,72.08L280.61,80.72L281.29,74.47L284.01,106.64L284.69,92.02L285.37,122.06L286.05,108.17L288.09,95.67L288.77,110.69L290.13,153.09L290.81,147.97L292.84,178.28L293.52,147.91L294.2,154.62L294.88,129.96L295.56,131.16L297.57,121.52L298.25,119.86L298.93,120.66L299.61,150.63L300.29,144.39L302.33,136.14L303.01,148.9L304.37,163.26L305.05,155.35L307.08,157.15L307.76,164.72L309.12,130.89L311.84,128.64L312.52,128.57L313.2,123.52L313.88,115.88L314.56,119.8L316.6,147.58L317.28,136.88L317.96,147.77L318.63,118.13L319.31,123.85L321.35,130.76L322.03,142.99L322.71,127.44L323.39,144.39L324.07,119.8L326.11,102.19L326.79,103.51L330.86,147.77L331.54,147.38L332.22,152.56L332.9,152.16L333.58,146.05L335.62,164.79L336.3,159.21L337.66,184.06L338.34,174.09L340.38,173.69L341.06,175.09L342.42,151.03L343.09,156.95L345.13,155.15L345.81,152.36L347.17,148.64L347.85,137.61L350.57,132.76L351.25,125.05L351.93,136.28L352.61,127.64L354.65,129.17L355.33,132.22L356,138.4L356.68,127.77L357.36,129.43L359.4,127.84L360.76,137.41L361.44,107.83L362.12,107.24L364.16,120.93L365.52,112.75L366.2,97.6L366.88,100.79L368.91,91.09L370.27,45.56L370.95,49.68L371.63,40.45L374.35,41.98L375.71,73.41L376.39,65.7L378.43,66.3L379.11,69.95L381.14,99L383.18,94.41L383.86,90.89L384.54,75.6L385.9,57.39L387.94,59.59L388.62,64.84L389.3,23.5L394.05,23.5L394.73,58.43L395.41,70.62L397.45,84.39L398.13,90.38L398.81,83.85L399.49,90.27L400.17,68.23L402.21,84.94L402.89,84.5L403.57,106.92L404.25,105.5L404.93,100.33L406.96,77.92L407.64,84.01L408.32,80.47L409,86.08L409.68,63.6L411.72,64.04L413.76,75.58L414.44,71.66L417.16,75.85L417.83,92.06L418.51,92.17L419.19,97.34L421.23,99.52L421.91,94.46L422.59,95.17L423.27,91.79L423.95,104.53L425.99,117.2L428.03,92.17L428.71,94.08L430.74,81.24L431.42,117.37L432.1,123.73L432.78,109.86L433.46,112.31L435.5,123.79L436.86,105.83L437.54,90.54L438.22,98.1L440.26,100.17L440.94,98.21L441.62,75.79L442.97,59.69L445.01,36.23L446.37,36.45L447.05,23.5L450.45,23.5L451.13,26.92L452.49,37.7L454.53,23.5L456.56,23.5L457.24,28.95L459.31,23.5L459.99,28.84L460.67,67.79L461.35,41.36L462.03,33.27L464.07,39.3L464.75,23.5L465.42,28.21L466.78,23.5L468.82,35.52L469.5,46.33L470.18,23.5L471.54,35.75L473.58,23.5L474.26,37.63L474.94,74.59L475.62,68.33L476.3,94.95L478.33,114.71L479.01,91.6L479.69,90.04L480.37,118.54L481.05,116.75L483.09,135.71L483.77,128.52L484.45,85.01L485.81,119.94L487.85,127.72L488.53,93.99L489.21,95.47L489.88,86.45L492.6,53.64L493.28,58.47L494.64,90.4L495.32,95.39L497.36,70.08L498.04,93.31L498.72,126.33L499.4,126.01L500.08,142.89L502.12,142.89L502.79,121.7L503.47,121.06L504.15,139.94L504.83,123.41L507.55,143.17L509.59,195.54L511.63,204.64L513.67,260.25L514.35,249.71L517.74,179.77L518.42,190.47L519.1,176.42L521.14,176.14L522.5,139.5L523.18,167.76L523.86,218.02L525.9,213.66L526.58,184.92L527.25,200.01L527.93,221.25L528.61,215.42L531.33,208.16L532.01,231.65L533.37,186.56L535.41,177.46L536.09,215.42L536.77,197.66L538.13,237.06L540.16,258.85L540.84,248.55L541.52,226.52L542.88,253.5L544.89,261.64L546.25,209.27L546.93,223.96L547.61,216.9L549.65,207.08L551.01,215.06L551.69,188.68L552.37,192.11L554.4,189.83L555.08,177.9L555.76,193.91L557.12,237.93L559.16,228.59L560.52,255.98L561.2,255.78L561.88,266.63L563.92,281.12L564.6,290.19L565.28,279.65L565.96,298.33L568.67,295.02L569.35,282.88L570.03,294.5L571.39,317.97L573.43,307.79L574.79,330.86L575.47,311.98L576.15,328.43L578.19,311.18L578.86,306.03L579.54,272.94L580.22,295.09L580.9,289.23L582.94,325.07L583.62,315.61L584.98,322.28L585.66,290.11L587.7,293.62L588.38,260.77L589.06,285.47L589.74,283.92L590.42,296.57L592.45,290.3L593.13,305.91L593.81,299.96L594.49,275.62L595.17,261.6L597.89,263.2L598.57,265.76L599.25,236.34L599.93,245.48L601.97,248.07L602.65,249.55L603.33,263.04L606.72,322.56L607.4,322.56L608.08,313.34L608.76,342.28L609.44,344.19L612.16,335.33L612.84,335.49L613.52,340.76L614.2,322.2L616.23,325.87L617.59,358.48L618.27,364.55L618.95,375.73L621.67,369.62L622.35,369.02L623.03,353.25L623.71,353.05L625.75,362.63L626.43,364.99L627.11,360.36L627.79,356.05L628.46,346.03L630.5,344.75L631.18,326.99L632.54,306.19L633.22,318.13L635.26,320.36L635.94,329.5L637.98,292.7L640.02,283.48L640.69,273.46L641.37,278.25L642.05,255.02L642.73,261.41L644.77,270.35L645.45,288.43L646.13,274.42L646.81,278.13L647.49,267.31L649.53,266.59L650.21,269.83L650.89,277.53L651.57,268.87L652.25,286.79L654.96,300.6L655.64,299.65L656.32,281.88L657,305.83L659.72,322.76L660.4,331.02L661.76,349.5L664.48,355.57L665.16,352.02L665.83,339.36L666.51,328.71L668.55,331.94L669.23,362.32L669.91,360.64L670.59,363.79L671.27,364.39L673.31,363.35L674.67,372.49L675.35,392.37L676.03,398.52L678.06,405.15L679.42,396.92L680.1,413.77L680.78,416.88L682.82,405.9L684.18,398.6L684.86,398.96L685.54,436.52L687.58,439.04L688.26,439.75L688.94,438.88L689.62,434.52L690.29,446.5L693.01,438.6L693.69,441.35L695.05,435L697.09,435.48L697.77,424.43L698.45,431.37L699.13,435.88L699.81,422.27L703.2,435.76L703.88,429.85L704.56,421.55L706.63,418L707.31,414.93L707.99,430.61L709.35,380.92L711.39,376.29L712.07,364.95L712.75,379.6L713.42,374.81L714.1,376.13L716.14,380.56L716.82,369.42L717.5,364.83L718.86,369.86L720.9,377.64L721.58,376.84L722.26,359.92L722.94,360.52L723.62,370.5L725.65,375.93L726.33,389.3L727.01,389.82L727.69,388.5L728.37,396.01L730.41,387.7L731.09,383.79L731.77,394.65L733.13,408.7L735.17,411.97L735.85,410.14L736.53,399.64L737.21,414.89L737.88,412.25L741.28,420.04L741.96,411.05L742.64,411.25L745.36,414.25L746.04,411.69L746.72,420.99L749.44,401.39L750.12,398.16L752.15,386.39L754.87,384.03L755.55,388.26L756.23,399.52L758.95,364.31L759.63,371.62L761.67,368.82L763.7,380.6L764.38,369.82L765.06,331.94L765.74,317.29L766.42,326.15L768.46,335.77L769.14,326.87L771.18,344.55L773.22,337.97L773.9,326.71L774.58,329.78L775.93,356.45L778.65,363.35L779.33,363.99L780.01,351.46L780.69,358.08L782.73,355.37L784.09,357.29L784.77,348.7L785.45,344.39L787.48,345.83L788.16,342.04L788.84,329.02L790.2,339.8L792.21,342.44L794.93,279.25L796.97,283.36L797.65,286.87L798.33,280.29L799.01,269.51L799.69,278.81L801.73,284.16L802.4,292.34L804.44,278.57L806.48,284.36L807.16,287.11L807.84,300.32L808.52,300.68L811.24,288.67L813.28,302.2L813.96,303.56L816.67,311.42L817.35,310.78L818.03,310.1L818.71,316.81L820.75,320.24L821.43,335.29L823.47,313.06L825.51,311.78L826.19,310.9L826.86,343.99L828.22,311.18L830.26,290.42L830.94,290.34L831.62,282.52L832.3,282.2L832.98,289.55L835.02,281L835.7,264.72L837.06,238.97L837.74,247.39L840.45,238.21L841.13,237.61L842.49,162.73L845.21,169.76L845.89,197.94L846.57,192.91L847.25,199.33L849.29,199.05L849.97,173.91L850.65,199.45L852,171.15L854.04,154.11L854.72,172.71L855.4,161.53L856.76,190.47L859.48,195.06L860.84,227.91L861.52,230.67L863.56,240.65L864.23,229.15L864.91,230.03L865.59,225.76L866.27,215.1L868.31,207.48L870.35,216.82L871.03,218.06L873.07,216.42L873.75,225.44L875.11,207.08L875.79,207L877.82,197.5L878.5,199.05L879.18,205.04L879.86,229.71L880.54,226.92L882.58,228.27L883.26,218.73L883.94,230.35L885.3,218.89L887.34,213.15L888.02,200.37L888.69,233.3L890.05,207.48L892.09,203.53L893.45,228.83L894.13,229.79L894.81,240.41L896.85,222.81L897.53,225.32L898.21,241.93L898.89,252.9L899.57,248.87L901.6,237.81L902.28,248.03L902.96,232.98L903.64,263.44L904.32,261.64L906.36,260.21L907.72,244.32L908.4,247.79L909.08,232.9L911.8,227.6L913.83,246.32L915.87,249.39L916.55,249.43L917.23,239.85L917.91,244.16L918.59,264.68L920.63,261.17L921.31,264.2L921.99,269.27L922.67,286.15L923.35,285.79L925.39,281.08L926.06,286.75L926.74,278.33L928.1,259.37L930.14,257.57L930.82,270.31L931.5,254.38L932.18,259.01L932.86,241.73L934.9,242.8L935.58,234.66L936.26,237.45L936.94,235.54L937.62,250.31L939.65,244.84L940.33,250.11L941.01,261.96L941.69,261.05L942.37,263.4L944.41,270.59L945.09,263.96L946.45,295.89L947.13,284.88L949.17,285.87L949.85,276.61L950.53,238.53L951.2,239.37L951.88,221.73L953.95,223.72L954.63,216.94L955.99,216.78L956.67,196.42L958.71,203.61L959.39,191.27L960.07,198.78L960.75,191.47L961.42,188.32L963.46,184.68L964.14,194.14L964.82,180.77L966.18,181.57L968.22,180.21L968.9,182.77L969.58,175.42L970.26,186.16L970.94,185.24L972.98,196.5L973.65,197.26L974.33,203.49L975.69,155.19L977.73,133.27L979.09,118.18L979.77,118.94L980.45,114.35L982.49,115.35L983.17,110.36L983.85,129.04L984.53,111.32L985.21,112.55L987.92,97.35L989.28,75.99L989.96,81.38L993.36,129.64L994.04,126.88L997.44,73.99L998.12,76.87L998.79,78.94L999.47,84.77L1003.55,23.5L1004.23,23.5L1006.27,45.94L1006.95,45.05L1008.31,23.5L1008.99,34.54L1011.02,32.46L1011.7,53.14L1012.38,68.8L1013.06,58.8L1013.74,33.07L1015.78,45.36L1016.46,68.12L1017.14,57.15L1017.82,62.85L1018.5,51.63L1021.22,55L1021.9,29.34L1026.65,80.99L1027.33,23.5L1028.01,42.48L1030.05,44.29L1030.73,37.22L1031.41,42.41L1032.77,23.5L1034.81,23.5L1035.48,24.22L1036.16,23.5L1036.84,23.5L1037.52,35.7L1039.53,63.22L1040.21,49.86L1041.57,97.86L1042.25,85.63L1044.29,86.88L1044.97,115.1L1046.33,123.48L1047.01,120.51L1049.73,125.96L1050.4,120.7L1053.8,109.23L1054.48,123.42L1055.16,117.09L1055.84,162.77L1056.52,148.74L1058.56,150.33L1059.24,147.63L1059.92,158.76L1060.6,148.49L1061.28,170.57L1063.31,179.62L1063.99,170.02L1064.67,198.88L1065.35,195.64L1066.03,221.44L1068.07,215.33L1068.75,204.23L1069.43,205.85L1070.79,188.54L1072.83,179.98L1073.51,185.55L1074.19,228.69L1074.86,222.91L1075.54,209.34L1077.58,193.5L1078.26,197.62L1080.3,205.3L1082.34,209.46L1083.02,201.51L1083.7,181.6L1085.06,166.93L1087.09,161.24L1087.77,166.35L1088.45,163.72L1089.13,179.28L1089.81,161.15L1092.53,145.1L1093.21,164.88L1094.57,159.5L1096.61,169.74L1097.29,180.63L1097.97,161.73L1099.33,156.53L1101.36,179.56L1102.04,183.77L1102.72,179.86L1106.12,185.49L1106.8,197.01L1108.16,175.15L1108.84,176.83L1111.56,179.83L1112.23,188.12L1113.59,173.84L1115.63,187.66L1116.31,167.42L1116.99,168.67L1118.35,144.21L1120.39,123.45L1121.07,128.31L1121.75,107.34L1122.43,113.51L1123.11,114.52L1125.14,119.96L1125.82,126.94L1126.5,182.34L1127.86,206.34L1129.9,193.22L1130.58,198.94L1131.26,227.59L1131.94,246.88L1132.62,241.78L1134.66,242.51L1135.34,246.51L1136.02,228.05L1136.69,264.55L1137.37,264.68L1139.41,257.58L1140.77,276.39L1141.45,253L1142.13,259.26L1144.17,251.62L1146.21,219.24L1146.89,215.57L1150.28,187.29L1150.96,205.97L1151.64,195.94L1153.68,211.2L1154.36,209.64L1155.04,222.3L1155.72,224.96L1156.4,215.57L1159.12,251.1L1159.8,239.08L1160.48,243.46L1161.16,259.02L1163.19,247.4L1163.87,233.06L1165.23,208.82L1165.91,204.11L1167.95,204.81L1168.63,208.66L1169.31,216.4L1169.99,190.56L1170.67,192.98L1172.71,190.53L1173.39,185.73L1174.06,174.42L1174.74,157.69L1175.42,167.29L1177.46,168.12L1178.14,181.36L1178.82,181.27L1179.5,171.88L1180.18,147.27L1182.22,147.05L1182.9,141.46L1183.58,146.9L1184.26,167.81L1184.94,156.47L1186.97,164.48L1187.65,190.87L1188.33,192.43L1189.01,192.06L1189.69,192.92L1191.73,187.02L1193.09,202.27L1193.77,200.65L1194.45,192.12L1196.49,180.84L1197.17,161.49L1197.85,215.45L1199.2,236.06L1201.27,239.57L1201.95,236.67L1202.63,226.15L1203.31,211.72L1203.99,217.44L1206.03,219.27L1206.71,230.65L1208.75,257.34L1210.78,245.02L1211.46,243.61L1212.14,249.08L1212.82,249.42L1213.5,246.79L1215.54,238.29L1216.22,248.72L1216.9,253.24L1218.26,250.38L1221.65,229.55L1222.33,237.59L1225.73,279.23L1226.41,271.86L1227.09,270.49L1227.77,281.77L1229.81,282.44L1230.49,287.55L1231.85,306.32L1232.53,305.31L1235.24,283.66L1236.6,287.42L1237.28,287.03L1239.32,295.43L1240,300.48" style="vector-effect: none; fill: none; stroke: rgb(41, 98, 255); stroke-opacity: 1; stroke-width: 1.5px; opacity: 1;"/></g><g class="points"/><g class="text"/></g><g class="trace scatter tracef64e02" style="stroke-miterlimit: 2; opacity: 1;"><g class="fills"/><g class="errorbars"/><g class="lines"><path class="js-line" d="M0,23.5L14.27,23.5L14.95,40.5L16.99,54.12L17.67,38.25L19.02,88.74L19.7,88.74L26.5,88.74L27.18,82.41L27.86,81.43L28.54,74.44L29.22,65.92L31.93,48.67L32.61,26.73L33.29,44.52L33.97,88.09L36.01,133.51L37.37,111.4L38.05,111.4L55.69,111.4L56.37,137.17L57.05,102.92L57.73,113.9L59.76,98.63L60.44,127.03L61.12,148.75L61.8,138.85L62.48,161.52L64.52,102.68L65.2,102.21L65.88,87.53L66.56,92.42L69.28,61.87L70.63,23.5L71.31,23.5L71.99,27.47L74.03,23.5L74.71,69.45L75.39,35.41L76.07,35.64L76.75,32.46L78.79,28.95L79.47,40.06L81.51,90.43L83.54,90.43L94.42,90.43L95.09,111.18L95.77,109.96L98.49,109.96L108.68,109.96L109.36,141.08L110.04,134.38L112.08,143.58L113.44,143.58L114.12,149.17L114.8,145.61L116.84,145.61L127.71,145.61L128.39,109.02L129.07,122.49L131.11,144.92L132.46,127.78L133.14,131.89L133.82,130.72L135.86,107.02L136.54,111.52L137.22,64.61L137.9,86.35L138.58,23.5L140.62,27.5L141.3,40.17L142.66,23.5L143.34,29.86L145.37,27.88L146.05,23.5L147.41,23.5L148.09,37.36L150.13,56.82L150.81,96.77L151.49,54.06L152.17,59.8L152.85,63.82L154.89,57.94L184.78,57.94L185.46,44.68L186.14,67.22L188.18,35.17L188.86,47.47L189.54,31.19L190.22,32.52L190.9,57.64L192.94,48.87L193.62,41.58L194.97,57.42L195.65,57.12L197.69,53.81L209.27,53.81L209.95,36.4L211.99,56.76L212.67,94.6L214.03,66.2L214.71,69.22L216.75,52.26L217.42,54.99L218.1,61.04L218.78,38.91L219.46,45.55L221.5,40.61L222.18,42.38L222.86,30.28L224.22,26.52L226.26,23.5L227.62,23.5L228.3,33.36L228.98,23.5L231.01,23.5L231.69,31.4L232.37,52.63L233.05,40.06L233.73,40.13L235.77,23.5L236.45,23.5L237.13,25.3L237.81,25.36L238.49,31.49L240.53,49.39L241.21,48.52L254.79,48.52L255.47,64.42L256.83,87.18L257.51,87.18L264.99,87.18L265.67,101.64L267.02,95.31L269.06,95.31L274.5,95.31L275.18,89.97L275.86,88.02L276.54,81.05L279.25,95.56L279.93,105.1L280.61,113.26L281.29,107.36L284.69,146.16L285.37,146.16L297.57,146.16L298.25,151.86L298.93,152.61L299.61,180.84L300.29,174.95L302.33,167.19L304.37,192.73L305.05,190.23L308.44,190.23L309.12,184.63L312.52,182.54L313.2,177.99L313.88,171.11L314.56,174.64L316.6,199.65L317.28,190.02L317.96,199.83L318.63,173.14L319.31,178.29L321.35,184.51L322.03,195.52L322.71,181.52L323.39,196.78L324.07,174.64L326.11,158.79L326.79,159.98L331.54,203.42L332.22,203.42L343.09,203.42L345.13,202.33L347.17,196.42L347.85,186.4L350.57,181.99L351.25,174.99L351.93,185.19L352.61,177.34L354.65,178.73L355.33,181.51L356,187.12L356.68,177.46L357.36,178.97L359.4,177.52L360.76,186.22L361.44,159.35L362.12,158.81L364.16,171.24L365.52,163.82L366.2,150.06L366.88,152.95L368.91,144.14L370.27,102.79L370.95,106.53L371.63,98.14L374.35,99.53L375.71,128.08L376.39,121.08L378.43,121.63L379.11,124.95L380.46,121.93L381.14,121.93L389.3,121.93L389.98,85.79L390.66,67.41L392.69,53.57L394.05,23.5L394.73,58.43L395.41,70.62L397.45,84.39L398.13,90.38L398.81,83.85L399.49,90.27L400.17,86.62L437.54,86.62L438.22,94.78L440.26,96.86L440.94,94.89L442.29,56.85L442.97,56.14L445.01,32.55L445.69,33.09L446.37,32.77L447.73,23.5L449.77,23.5L450.45,23.5L451.13,26.92L452.49,37.7L454.53,23.5L456.56,23.5L457.24,28.95L459.31,23.5L459.99,28.84L460.67,67.79L461.35,41.36L462.03,33.27L464.07,39.3L464.75,23.5L465.42,28.21L466.78,23.5L468.82,35.52L469.5,46.33L470.18,23.5L471.54,35.75L473.58,24.73L474.26,44.13L474.94,36.23L492.6,36.23L493.28,47.32L494.64,79.84L495.32,84.92L497.36,59.15L498.04,82.8L498.72,116.42L499.4,116.25L500.08,116.25L518.42,116.25L519.1,101.26L521.14,100.94L521.82,79.96L522.5,58.71L523.18,91.28L523.86,149.19L525.9,144.18L526.58,111.06L527.25,128.44L527.93,152.92L528.61,146.2L531.33,137.83L532.01,164.9L532.69,188.84L533.37,172.83L535.41,163.47L536.09,202.51L536.77,184.24L537.45,210.1L538.13,224.76L540.16,224.27L546.25,224.27L546.93,226.05L547.61,219.02L549.65,209.25L551.01,217.19L551.69,190.93L552.37,194.35L554.4,192.09L555.08,180.21L555.76,196.14L557.12,239.96L559.16,230.66L560.52,234.02L561.2,234.02L578.86,234.02L579.54,228.52L580.22,253.15L580.9,246.63L582.94,286.48L583.62,275.96L584.98,283.38L585.66,247.6L587.7,251.51L588.38,214.98L589.06,242.45L589.74,240.72L590.42,254.79L592.45,247.82L593.13,265.18L593.81,258.57L594.49,231.49L595.17,215.91L597.89,217.69L598.57,220.53L599.25,187.82L599.93,197.98L601.97,200.86L602.65,202.51L603.33,217.51L604.68,248.93L606.72,264.74L627.11,264.74L627.79,262.82L628.46,249.82L630.5,248.17L632.54,198.15L633.22,213.63L635.26,216.53L635.94,228.39L637.98,180.65L640.02,168.69L640.69,155.69L641.37,161.9L642.05,131.77L642.73,140.05L644.77,151.65L645.45,175.11L646.13,156.93L646.81,161.75L647.49,147.72L649.53,146.78L650.21,150.98L650.89,160.97L652.25,163.72L654.28,163.72L684.86,163.49L685.54,233.71L688.26,242.14L688.94,242.14L693.69,242.85L694.37,238.82L695.05,230.99L697.09,231.88L697.77,211.22L698.45,224.2L699.13,232.63L699.81,207.19L703.2,232.41L703.88,221.37L704.56,205.85L706.63,199.21L707.31,193.47L707.99,222.78L709.35,129.9L711.39,121.25L712.07,100.06L712.75,127.44L713.42,118.49L714.1,120.95L716.14,129.23L716.82,108.42L717.5,99.84L718.86,109.24L720.9,123.79L721.58,122.3L722.26,90.66L722.94,91.78L723.62,110.43L725.65,120.58L726.33,145.57L727.69,151.09L728.37,151.09L749.44,151.09L750.12,140.35L752.15,117.4L754.87,112.81L755.55,121.06L756.23,143L758.95,74.38L759.63,88.62L761.67,83.17L763.7,106.12L764.38,85.12L765.06,23.5L765.74,23.5L766.42,39.75L768.46,57.38L769.14,41.06L771.18,73.49L773.22,61.41L773.9,40.77L774.58,46.41L775.93,87.24L778.65,87.24L788.84,87.24L789.52,95.85L790.2,105.14L792.21,109.65L794.25,23.5L794.93,23.5L796.97,30.3L797.65,36.12L799.01,23.5L799.69,38.52L801.73,47.15L802.4,60.36L804.44,38.13L806.48,47.48L807.84,44.39L808.52,44.39L830.26,44.39L830.94,43.27L832.3,29.83L832.98,41.96L836.38,23.5L837.06,23.5L837.74,36.13L839.77,23.5L842.49,23.5L845.21,32.45L845.89,68.37L846.57,61.96L847.25,70.15L849.29,69.8L849.97,37.75L850.65,70.31L852,34.24L854.04,23.5L854.72,46.81L855.4,32.8L856.08,48.26L856.76,40.36L877.82,40.36L878.5,38.32L879.18,46.36L879.86,79.45L880.54,75.59L882.58,75.59L888.02,75.59L888.69,126.02L890.05,128.01L892.09,125.91L893.45,155.43L894.13,151.57L909.08,151.57L911.8,143.1L913.83,165.4L915.87,169.06L916.55,169.11L917.23,157.7L917.91,162.83L918.59,187.27L921.31,190.48L921.99,190.48L928.1,190.48L930.14,185.51L930.82,200.47L931.5,181.76L932.18,187.2L932.86,166.89L934.9,168.16L935.58,158.59L936.26,161.87L936.94,159.62L937.62,176.98L939.65,170.55L940.33,176.74L941.01,190.67L941.69,189.59L942.37,190.15L951.2,190.73L951.88,171.09L953.95,173.31L954.63,165.76L955.31,165.14L955.99,165.58L956.67,142.93L958.71,150.92L959.39,137.19L960.07,145.55L961.42,133.91L963.46,129.86L964.14,140.39L964.82,125.51L966.18,126.4L968.22,124.89L968.9,127.73L969.58,119.56L970.26,131.51L970.94,130.49L972.98,137.77L975.69,137.77L977.73,122.08L979.09,106.68L979.77,107.45L980.45,102.77L982.49,103.79L983.17,98.69L983.85,117.76L984.53,99.67L985.21,100.93L987.92,85.41L989.28,63.61L989.96,69.11L994.04,116.79L994.72,116.79L1002.19,116.79L1002.87,110.78L1003.55,102.06L1004.23,61.71L1006.27,82.83L1006.95,81.99L1008.31,40.42L1008.99,51.17L1011.02,49.15L1011.7,69.29L1012.38,84.54L1013.06,74.8L1013.74,63.25L1015.78,63.25L1032.09,63.25L1032.77,48.75L1034.81,40.42L1035.48,41.12L1036.84,23.5L1037.52,35.7L1039.53,63.22L1040.21,49.86L1041.57,79.94L1042.25,79.94L1072.83,79.94L1073.51,88.2L1074.19,140.02L1074.86,133.08L1075.54,123.57L1077.58,114L1079.62,126.1L1080.3,127.78L1082.34,132.63L1083.02,123.35L1084.38,89.6L1085.06,83L1087.09,76.36L1087.77,82.32L1088.45,79.25L1089.13,97.41L1089.81,76.26L1092.53,57.53L1093.21,80.61L1093.89,74.87L1094.57,74.33L1096.61,86.28L1097.29,98.98L1097.97,76.94L1099.33,70.87L1101.36,97.74L1102.72,97.16L1103.4,97.16L1116.31,97.16L1116.99,98.21L1118.35,70.31L1120.39,46.63L1121.07,52.18L1121.75,28.25L1123.11,36.45L1125.14,42.66L1125.82,50.61L1126.5,113.8L1127.86,99.92L1129.9,99.92L1144.85,99.92L1145.53,108.89L1146.89,77.76L1148.93,50.98L1150.28,40.9L1150.96,65.25L1151.64,52.18L1153.68,72.06L1154.36,70.03L1155.04,86.53L1155.72,90L1156.4,77.76L1159.12,124.07L1159.8,109.86L1164.55,109.86L1165.23,101.04L1165.91,95.23L1167.95,96.09L1169.31,110.39L1169.99,78.51L1170.67,81.49L1172.71,78.48L1173.39,72.55L1174.06,58.6L1174.74,37.96L1175.42,49.81L1177.46,50.83L1178.14,67.16L1178.82,67.05L1179.5,55.47L1180.18,25.1L1182.22,24.83L1182.9,23.5L1183.58,30.16L1184.26,55.74L1184.94,41.86L1186.97,51.66L1187.65,59.37L1215.54,59.37L1216.22,80.05L1216.9,86.39L1218.26,82.38L1221.65,53.2L1222.33,64.46L1225.73,122.79L1226.41,119.45L1236.6,119.45L1237.28,115.82L1240,135.29" style="vector-effect: none; fill: none; stroke: rgb(255, 109, 0); stroke-opacity: 1; stroke-width: 1.5px; opacity: 1;"/></g><g class="points"/><g class="text"/></g><g class="trace scatter traceff3b60" style="stroke-miterlimit: 2; opacity: 1;"><g class="fills"/><g class="errorbars"/><g class="lines"><path class="js-line" d="M0,23.5L293.52,23.5L294.2,31.81L294.88,23.5L295.56,24.93L298.25,23.5L298.93,24.44L299.61,59.66L300.29,52.32L302.33,42.64L303.01,57.63L304.37,74.5L305.05,65.21L307.08,67.32L307.76,76.22L309.12,36.46L311.84,33.81L312.52,33.73L313.2,27.8L313.88,23.5L314.56,28.07L316.6,60.49L317.28,48L317.96,60.72L318.63,26.14L319.31,32.8L321.35,40.87L322.03,55.14L322.71,36.99L323.39,56.76L324.07,28.07L326.11,23.5L326.79,25.01L330.86,75.41L331.54,74.96L332.22,80.86L332.9,80.4L333.58,73.44L335.62,94.78L336.3,88.42L337.66,116.73L338.34,105.37L340.38,104.92L341.06,106.51L342.42,79.12L343.09,85.85L345.13,83.81L345.81,80.63L347.17,76.39L347.85,63.83L350.57,58.31L351.25,49.53L351.93,62.32L352.61,52.48L354.65,54.22L355.33,57.7L356,64.74L356.68,52.63L357.36,54.52L359.4,52.71L360.76,63.6L361.44,29.93L362.12,29.25L364.16,44.84L366.2,23.5L366.88,27.1L369.59,23.5L370.27,23.5L512.31,23.5L512.99,45.17L513.67,90.92L514.35,76.03L517.06,23.5L517.74,23.5L518.42,37.61L519.1,23.5L522.5,23.5L523.18,57.94L523.86,119.19L525.9,113.89L526.58,78.86L527.25,97.25L527.93,123.13L528.61,116.03L531.33,107.18L532.01,135.81L533.37,80.86L535.41,69.76L536.09,116.03L536.77,94.38L538.13,142.4L540.16,168.96L540.84,156.41L541.52,129.55L542.88,162.44L544.89,172.36L546.25,108.54L546.93,126.44L547.61,117.83L549.65,105.86L551.01,115.59L551.69,83.43L552.37,87.62L554.4,84.85L555.08,70.3L555.76,89.81L557.12,143.47L559.16,132.08L560.52,165.46L561.2,165.21L561.88,178.45L563.92,196.1L564.6,207.15L565.28,194.3L565.96,217.07L568.67,213.03L569.35,198.25L570.03,212.4L571.39,241.01L573.43,228.6L574.79,256.72L575.47,233.71L576.15,253.75L578.19,232.74L578.86,226.46L579.54,186.13L580.22,213.13L580.9,205.98L582.94,249.67L583.62,238.14L584.98,246.26L585.66,207.05L587.7,211.33L588.38,171.29L589.06,201.41L589.74,199.51L590.42,214.93L592.45,207.29L593.13,226.32L593.81,219.07L594.49,189.39L595.17,172.32L597.89,174.26L598.57,177.38L599.25,141.52L599.93,152.66L601.97,155.82L602.65,157.62L603.33,174.07L606.72,246.6L607.4,246.6L608.08,235.36L608.76,270.63L609.44,272.97L612.16,262.17L612.84,262.36L613.52,268.79L614.2,246.16L616.23,250.64L617.59,290.39L618.27,297.78L618.95,311.4L621.67,303.96L622.35,303.23L623.03,284.01L623.71,283.77L625.75,295.45L626.43,298.32L627.11,292.67L627.79,287.42L628.46,275.21L630.5,273.65L631.18,252L632.54,226.66L633.22,241.2L635.26,243.93L635.94,255.07L637.98,210.21L640.02,198.98L640.69,186.76L641.37,192.6L642.05,164.29L642.73,172.07L644.77,182.97L645.45,205.01L646.13,187.93L646.81,192.46L647.49,179.27L649.53,178.4L650.21,182.34L650.89,191.73L651.57,181.17L652.25,203.01L654.96,219.85L655.64,218.68L656.32,197.03L657,226.22L659.72,246.85L660.4,256.92L661.76,279.44L664.48,286.83L665.16,282.5L665.83,267.08L666.51,254.09L668.55,258.03L669.23,295.06L669.91,293.01L670.59,296.86L671.27,297.59L673.31,296.32L674.67,307.46L675.35,331.69L676.03,339.18L678.06,347.26L679.42,337.23L680.1,357.76L680.78,361.56L682.82,348.18L684.18,339.28L684.86,339.72L685.54,385.49L687.58,388.56L688.26,389.43L688.94,388.36L689.62,383.06L690.29,397.66L692.33,387.83L693.01,388.02L693.69,391.38L695.05,383.64L697.09,384.23L697.77,370.75L698.45,379.22L699.13,384.72L699.81,368.13L703.2,384.57L703.88,377.37L704.56,367.25L706.63,362.92L707.31,359.17L707.99,378.29L709.35,317.73L711.39,312.08L712.07,298.27L712.75,316.12L713.42,310.28L714.1,311.89L716.14,317.29L716.82,303.72L717.5,298.12L718.86,304.25L720.9,313.74L721.58,312.76L722.26,292.14L722.94,292.87L723.62,305.03L725.65,311.65L726.33,327.94L727.01,328.57L727.69,326.97L728.37,336.12L730.41,326L731.09,321.23L731.77,334.46L733.13,351.59L735.17,355.57L735.85,353.34L736.53,340.54L737.21,359.13L737.88,355.92L740.6,362L741.28,365.4L741.96,354.46L742.64,354.7L745.36,358.35L746.04,355.23L746.72,366.57L749.44,342.68L750.12,338.74L752.15,324.39L754.87,321.52L755.55,326.68L756.23,340.4L758.95,297.49L759.63,306.39L761.67,302.99L763.7,317.34L764.38,304.2L765.06,258.03L766.42,259.74L768.46,259.74L1066.03,259.74L1068.07,258.38L1068.75,248.33L1069.43,249.8L1070.79,234.13L1072.83,226.38L1073.51,231.42L1074.19,270.48L1074.86,265.25L1075.54,252.96L1077.58,238.62L1078.26,242.36L1080.3,249.3L1082.34,253.07L1083.02,245.87L1083.7,227.85L1085.06,214.57L1087.09,209.42L1087.77,214.04L1088.45,211.66L1089.13,225.75L1089.81,209.33L1092.53,194.8L1093.21,212.71L1094.57,207.84L1096.61,217.11L1097.29,226.97L1097.97,209.86L1099.33,205.15L1101.36,226L1102.04,229.82L1102.72,226.27L1106.12,231.37L1106.8,241.8L1108.16,222.01L1108.84,223.53L1111.56,226.25L1112.23,233.75L1113.59,220.82L1115.63,233.33L1116.31,215.01L1116.99,216.14L1118.35,194L1120.39,175.21L1121.07,179.61L1122.43,160.32L1123.11,160.32L1240,160.32" style="vector-effect: none; fill: none; stroke: rgb(170, 0, 255); stroke-opacity: 1; stroke-width: 1.5px; opacity: 1;"/></g><g class="points"/><g class="text"/></g><g class="trace scatter trace28a20c" style="stroke-miterlimit: 2; opacity: 1;"><g class="fills"/><g class="errorbars"/><g class="lines"><path class="js-line" d="M0,23.5L29.22,23.5L31.93,27.82L32.61,23.5L33.29,41.39L33.97,85.17L36.01,130.81L36.69,147.82L37.37,146.39L38.05,146.39L110.04,146.39L112.08,125.49L112.76,127.68L113.44,126.78L114.12,131.86L114.8,128.18L131.79,128.18L132.46,124.43L133.14,128.57L133.82,127.39L135.86,125.52L136.54,133.1L137.22,88L137.9,108.9L138.58,23.5L140.62,27.5L141.3,40.17L141.98,23.5L142.66,23.5L143.34,29.86L145.37,27.88L146.05,23.5L147.41,23.5L148.09,37.36L150.13,56.82L150.81,96.77L151.49,54.06L152.17,59.8L152.85,63.82L154.89,55.48L157.6,75.45L159.64,75.45L165.76,75.45L166.44,111.31L167.12,118.69L169.83,118.69L209.95,118.69L211.99,126.01L212.67,159.58L213.35,150.42L214.03,150.42L214.71,158.58L216.75,159.96L217.42,163.42L218.78,169.31L219.46,169.31L227.62,169.31L228.3,178.62L228.98,177.19L231.01,181.75L232.37,181.86L233.05,170.36L233.73,170.41L235.77,153.36L236.45,140.61L237.13,142.08L238.49,138.27L240.53,138.27L254.79,138.27L255.47,151.87L256.83,164.61L257.51,164.61L264.31,164.61L264.99,165.67L266.35,203.94L267.02,203.73L269.74,203.73L270.42,207.47L271.78,205.73L273.82,205.73L362.12,205.73L364.16,210.73L365.52,203.9L366.2,200.73L366.88,204.64L368.91,200.51L369.59,200.51L370.27,184.44L370.95,187.64L371.63,180.46L374.35,181.65L375.03,201.96L375.71,206.09L376.39,204.54L378.43,206.63L379.11,209.44L380.46,206.89L381.14,206.89L384.54,206.89L385.22,197.52L385.9,192.65L387.94,194.36L389.3,188.56L389.98,156.82L390.66,140.67L392.69,128.52L394.05,77.99L394.73,109.98L395.41,121.14L397.45,133.75L398.13,139.23L398.81,133.25L399.49,139.13L400.17,118.95L402.21,134.25L402.89,133.85L403.57,154.38L404.25,153.08L404.93,148.35L406.96,127.82L407.64,133.4L409,131.01L409.68,131.01L437.54,131.01L438.22,138.54L440.94,140.77L441.62,140.77L442.97,133.01L445.01,134.06L446.37,133L447.05,119.44L447.73,117.18L449.77,105.47L450.45,102.84L451.13,105.84L452.49,115.29L454.53,92.23L455.88,67.79L456.56,35.64L457.24,40.99L459.31,23.5L459.99,28.84L460.67,67.79L462.03,33.27L464.07,39.3L464.75,23.5L465.42,28.21L466.78,23.5L468.82,35.52L469.5,46.33L470.18,23.5L471.54,35.75L473.58,23.5L474.26,37.63L474.94,29.65L484.45,29.65L485.13,66.05L485.81,76.24L487.85,76.24L642.05,76.24L642.73,68.84L644.77,82L645.45,108.61L646.13,87.99L646.81,93.45L647.49,77.54L649.53,76.48L652.25,76.65L654.28,76.65L758.95,76.65L759.63,69.01L761.67,63.38L763.7,87.11L765.74,23.5L766.42,39.75L768.46,57.38L769.14,41.06L771.18,73.49L773.22,61.41L773.9,40.77L774.58,46.41L775.93,95.29L778.65,105.17L793.57,105.17L794.25,61.88L794.93,54.07L796.97,60.56L797.65,66.09L798.33,55.71L799.01,38.72L799.69,53.38L801.73,61.81L802.4,74.72L803.08,65.21L803.76,65.95L804.44,65.15L807.16,78.35L807.84,87.73L827.54,87.73L828.22,54.51L830.94,23.5L831.62,23.5L832.3,23.5L832.98,35.75L835.7,23.5L836.38,23.5L837.06,23.5L837.74,36.13L840.45,23.5L841.13,23.5L842.49,23.5L845.21,32.45L845.89,68.37L846.57,61.96L847.25,70.15L849.29,69.8L849.97,37.75L850.65,70.31L852,34.24L854.04,23.5L854.72,46.81L855.4,32.8L856.76,69.07L859.48,74.83L860.84,77.05L861.52,77.05L888.69,77.05L889.37,54.2L890.05,39.68L892.09,34.29L893.45,68.78L894.13,70.09L894.81,84.56L896.85,89.02L898.89,98.9L899.57,98.9L955.99,99.2L956.67,73.56L958.71,82.61L959.39,67.07L960.07,76.52L960.75,67.32L961.42,63.35L963.46,58.77L964.82,63.75L966.18,63.75L975.01,63.75L975.69,66.65L979.09,23.5L979.77,24.39L980.45,23.5L982.49,24.66L983.17,23.5L983.85,45.08L984.53,24.61L985.21,26.04L987.92,23.5L989.28,23.5L989.96,29.37L993.36,44.76L994.04,41.58L994.72,29.71L996.76,23.5L997.44,23.5L998.12,26.62L998.79,28.87L999.47,35.19L1002.87,23.5L1003.55,23.5L1004.23,23.5L1006.27,45.94L1006.95,45.05L1007.63,23.5L1008.31,23.5L1008.99,34.54L1011.02,32.46L1011.7,53.14L1012.38,68.8L1013.06,58.8L1013.74,33.07L1015.78,45.36L1016.46,68.12L1017.14,57.15L1017.82,62.85L1018.5,51.63L1021.22,55L1021.9,48.09L1022.58,56.35L1023.25,53.95L1035.48,54.04L1036.16,37.53L1036.84,35.28L1037.52,47.26L1039.53,74.27L1040.21,67.88L1041.57,85.48L1042.25,85.48L1044.29,93.44L1044.97,116.09L1120.39,116.09L1121.07,118.79L1121.75,97.45L1122.43,103.73L1123.11,104.76L1125.14,110.3L1127.18,110.73L1127.86,110.73L1184.26,110.73L1184.94,98.12L1186.97,107.04L1187.65,114.05L1197.85,114.05L1198.53,128.08L1199.2,126.69L1201.27,126.69L1240,126.69" style="vector-effect: none; fill: none; stroke: rgb(0, 200, 83); stroke-opacity: 1; stroke-width: 1.5px; opacity: 1;"/></g><g class="points"/><g class="text"/></g></g></g></g><g class="zerolinelayer-above"/><path class="xlines-above crisp" d="M0,0" style="fill: none;"/><path class="ylines-above crisp" d="M0,0" style="fill: none;"/><g class="overlines-above"/><g class="xaxislayer-above"><g class="xtick"><text text-anchor="middle" x="0" y="583" transform="translate(202.84,0)" style="font-family: 'Open Sans', verdana, arial, sans-serif; font-size: 12px; fill: rgb(42, 63, 95); fill-opacity: 1; white-space: pre;">Jul 2020</text></g><g class="xtick"><text text-anchor="middle" x="0" y="583" style="font-family: 'Open Sans', verdana, arial, sans-serif; font-size: 12px; fill: rgb(42, 63, 95); fill-opacity: 1; white-space: pre;" transform="translate(327.86,0)">Jan 2021</text></g><g class="xtick"><text text-anchor="middle" x="0" y="583" style="font-family: 'Open Sans', verdana, arial, sans-serif; font-size: 12px; fill: rgb(42, 63, 95); fill-opacity: 1; white-space: pre;" transform="translate(450.84,0)">Jul 2021</text></g><g class="xtick"><text text-anchor="middle" x="0" y="583" style="font-family: 'Open Sans', verdana, arial, sans-serif; font-size: 12px; fill: rgb(42, 63, 95); fill-opacity: 1; white-space: pre;" transform="translate(575.86,0)">Jan 2022</text></g><g class="xtick"><text text-anchor="middle" x="0" y="583" style="font-family: 'Open Sans', verdana, arial, sans-serif; font-size: 12px; fill: rgb(42, 63, 95); fill-opacity: 1; white-space: pre;" transform="translate(698.84,0)">Jul 2022</text></g><g class="xtick"><text text-anchor="middle" x="0" y="583" style="font-family: 'Open Sans', verdana, arial, sans-serif; font-size: 12px; fill: rgb(42, 63, 95); fill-opacity: 1; white-space: pre;" transform="translate(823.86,0)">Jan 2023</text></g><g class="xtick"><text text-anchor="middle" x="0" y="583" style="font-family: 'Open Sans', verdana, arial, sans-serif; font-size: 12px; fill: rgb(42, 63, 95); fill-opacity: 1; white-space: pre;" transform="translate(946.84,0)">Jul 2023</text></g><g class="xtick"><text text-anchor="middle" x="0" y="583" style="font-family: 'Open Sans', verdana, arial, sans-serif; font-size: 12px; fill: rgb(42, 63, 95); fill-opacity: 1; white-space: pre;" transform="translate(1071.8600000000001,0)">Jan 2024</text></g><g class="xtick"><text text-anchor="middle" x="0" y="583" style="font-family: 'Open Sans', verdana, arial, sans-serif; font-size: 12px; fill: rgb(42, 63, 95); fill-opacity: 1; white-space: pre;" transform="translate(1195.52,0)">Jul 2024</text></g></g><g class="yaxislayer-above"><g class="ytick"><text text-anchor="end" x="79" y="4.199999999999999" transform="translate(0,511.28)" style="font-family: 'Open Sans', verdana, arial, sans-serif; font-size: 12px; fill: rgb(42, 63, 95); fill-opacity: 1; white-space: pre;">−60</text></g><g class="ytick"><text text-anchor="end" x="79" y="4.199999999999999" style="font-family: 'Open Sans', verdana, arial, sans-serif; font-size: 12px; fill: rgb(42, 63, 95); fill-opacity: 1; white-space: pre;" transform="translate(0,446.65)">−50</text></g><g class="ytick"><text text-anchor="end" x="79" y="4.199999999999999" style="font-family: 'Open Sans', verdana, arial, sans-serif; font-size: 12px; fill: rgb(42, 63, 95); fill-opacity: 1; white-space: pre;" transform="translate(0,382.02)">−40</text></g><g class="ytick"><text text-anchor="end" x="79" y="4.199999999999999" style="font-family: 'Open Sans', verdana, arial, sans-serif; font-size: 12px; fill: rgb(42, 63, 95); fill-opacity: 1; white-space: pre;" transform="translate(0,317.39)">−30</text></g><g class="ytick"><text text-anchor="end" x="79" y="4.199999999999999" style="font-family: 'Open Sans', verdana, arial, sans-serif; font-size: 12px; fill: rgb(42, 63, 95); fill-opacity: 1; white-space: pre;" transform="translate(0,252.76)">−20</text></g><g class="ytick"><text text-anchor="end" x="79" y="4.199999999999999" style="font-family: 'Open Sans', verdana, arial, sans-serif; font-size: 12px; fill: rgb(42, 63, 95); fill-opacity: 1; white-space: pre;" transform="translate(0,188.13)">−10</text></g><g class="ytick"><text text-anchor="end" x="79" y="4.199999999999999" style="font-family: 'Open Sans', verdana, arial, sans-serif; font-size: 12px; fill: rgb(42, 63, 95); fill-opacity: 1; white-space: pre;" transform="translate(0,123.5)">0</text></g></g><g class="overaxes-above"/></g></g><g class="polarlayer"/><g class="smithlayer"/><g class="ternarylayer"/><g class="geolayer"/><g class="funnelarealayer"/><g class="pielayer"/><g class="iciclelayer"/><g class="treemaplayer"/><g class="sunburstlayer"/><g class="glimages"/><defs id="topdefs-8caaaf"><g class="clips"/><clipPath id="legend8caaaf"><rect width="707" height="29" x="0" y="0"/></clipPath></defs><g class="layer-above"><g class="imagelayer"/><g class="shapelayer"/></g><g class="infolayer"><g class="legend" pointer-events="all" transform="translate(80,61.599999999999994)"><rect class="bg" shape-rendering="crispEdges" style="stroke: rgb(68, 68, 68); stroke-opacity: 1; fill: rgb(255, 255, 255); fill-opacity: 1; stroke-width: 0px;" width="707" height="29" x="0" y="0"/><g class="scrollbox" transform="" clip-path="url(#legend8caaaf)"><g class="groups"><g class="traces" transform="translate(0,14.5)" style="opacity: 1;"><text class="legendtext" text-anchor="start" x="40" y="4.680000000000001" style="font-family: 'Open Sans', verdana, arial, sans-serif; font-size: 12px; fill: rgb(42, 63, 95); fill-opacity: 1; white-space: pre;">Buy &amp; Hold</text><g class="layers" style="opacity: 1;"><g class="legendfill"/><g class="legendlines"><path class="js-line" d="M5,0h30" style="fill: none; stroke: rgb(41, 98, 255); stroke-opacity: 1; stroke-width: 1.5px;"/></g><g class="legendsymbols"><g class="legendpoints"/></g></g><rect class="legendtoggle" x="0" y="-9.5" width="109.65625" height="19" style="fill: rgb(0, 0, 0); fill-opacity: 0;"/></g><g class="traces" transform="translate(112.15625,14.5)" style="opacity: 1;"><text class="legendtext" text-anchor="start" x="40" y="4.680000000000001" style="font-family: 'Open Sans', verdana, arial, sans-serif; font-size: 12px; fill: rgb(42, 63, 95); fill-opacity: 1; white-space: pre;">Trend Following (MACD)</text><g class="layers" style="opacity: 1;"><g class="legendfill"/><g class="legendlines"><path class="js-line" d="M5,0h30" style="fill: none; stroke: rgb(255, 109, 0); stroke-opacity: 1; stroke-width: 1.5px;"/></g><g class="legendsymbols"><g class="legendpoints"/></g></g><rect class="legendtoggle" x="0" y="-9.5" width="188.28125" height="19" style="fill: rgb(0, 0, 0); fill-opacity: 0;"/></g><g class="traces" transform="translate(302.9375,14.5)" style="opacity: 1;"><text class="legendtext" text-anchor="start" x="40" y="4.680000000000001" style="font-family: 'Open Sans', verdana, arial, sans-serif; font-size: 12px; fill: rgb(42, 63, 95); fill-opacity: 1; white-space: pre;">Mean Reversion (RSI+BB)</text><g class="layers" style="opacity: 1;"><g class="legendfill"/><g class="legendlines"><path class="js-line" d="M5,0h30" style="fill: none; stroke: rgb(170, 0, 255); stroke-opacity: 1; stroke-width: 1.5px;"/></g><g class="legendsymbols"><g class="legendpoints"/></g></g><rect class="legendtoggle" x="0" y="-9.5" width="200.65625" height="19" style="fill: rgb(0, 0, 0); fill-opacity: 0;"/></g><g class="traces" transform="translate(506.09375,14.5)" style="opacity: 1;"><text class="legendtext" text-anchor="start" x="40" y="4.680000000000001" style="font-family: 'Open Sans', verdana, arial, sans-serif; font-size: 12px; fill: rgb(42, 63, 95); fill-opacity: 1; white-space: pre;">Custom (EMA+ATR+OBV)</text><g class="layers" style="opacity: 1;"><g class="legendfill"/><g class="legendlines"><path class="js-line" d="M5,0h30" style="fill: none; stroke: rgb(0, 200, 83); stroke-opacity: 1; stroke-width: 1.5px;"/></g><g class="legendsymbols"><g class="legendpoints"/></g></g><rect class="legendtoggle" x="0" y="-9.5" width="198.1875" height="19" style="fill: rgb(0, 0, 0); fill-opacity: 0;"/></g></g></g><rect class="scrollbar" rx="20" ry="3" width="0" height="0" style="fill: rgb(128, 139, 164); fill-opacity: 1;" x="0" y="0"/></g><g class="g-gtitle"><text class="gtitle" x="70" y="50" text-anchor="start" dy="0em" style="opacity: 1; font-family: 'Open Sans', verdana, arial, sans-serif; font-size: 17px; fill: rgb(42, 63, 95); fill-opacity: 1; white-space: pre;">AMD Drawdown Comparison</text></g><g class="g-xtitle"><text class="xtitle" x="700" y="610.3" text-anchor="middle" style="opacity: 1; font-family: 'Open Sans', verdana, arial, sans-serif; font-size: 14px; fill: rgb(42, 63, 95); fill-opacity: 1; white-space: pre;">Date</text></g><g class="g-ytitle"><text class="ytitle" transform="rotate(-90,34.521875,335)" x="34.521875" y="335" text-anchor="middle" style="opacity: 1; font-family: 'Open Sans', verdana, arial, sans-serif; font-size: 14px; fill: rgb(42, 63, 95); fill-opacity: 1; white-space: pre;">Drawdown (%)</text></g></g></svg>