<svg class="main-svg" xmlns="http://www.w3.org/2000/svg" xmlns:xlink="http://www.w3.org/1999/xlink" width="4200" height="1950" style="" viewBox="0 0 1400 650"><rect x="0" y="0" width="1400" height="650" style="fill: rgb(255, 255, 255); fill-opacity: 1;"/><defs id="defs-960182"><g class="clips"><clipPath id="clip960182xyplot" class="plotclip"><rect width="1240" height="470"/></clipPath><clipPath class="axesclip" id="clip960182x"><rect x="80" y="0" width="1240" height="650"/></clipPath><clipPath class="axesclip" id="clip960182y"><rect x="0" y="100" width="1400" height="470"/></clipPath><clipPath class="axesclip" id="clip960182xy"><rect x="80" y="100" width="1240" height="470"/></clipPath></g><g class="gradients"/><g class="patterns"/></defs><g class="bglayer"/><g class="layer-below"><g class="imagelayer"/><g class="shapelayer"/></g><g class="cartesianlayer"><g class="subplot xy"><g class="layer-subplot"><g class="shapelayer"/><g class="imagelayer"/></g><g class="minor-gridlayer"><g class="x"/><g class="y"/></g><g class="gridlayer"><g class="x"><path class="xgrid crisp" transform="translate(202.84,0)" d="M0,100v470" style="stroke: rgb(235, 240, 248); stroke-opacity: 1; stroke-width: 1px;"/><path class="xgrid crisp" transform="translate(327.86,0)" d="M0,100v470" style="stroke: rgb(235, 240, 248); stroke-opacity: 1; stroke-width: 1px;"/><path class="xgrid crisp" transform="translate(450.84,0)" d="M0,100v470" style="stroke: rgb(235, 240, 248); stroke-opacity: 1; stroke-width: 1px;"/><path class="xgrid crisp" transform="translate(575.86,0)" d="M0,100v470" style="stroke: rgb(235, 240, 248); stroke-opacity: 1; stroke-width: 1px;"/><path class="xgrid crisp" transform="translate(698.84,0)" d="M0,100v470" style="stroke: rgb(235, 240, 248); stroke-opacity: 1; stroke-width: 1px;"/><path class="xgrid crisp" transform="translate(823.86,0)" d="M0,100v470" style="stroke: rgb(235, 240, 248); stroke-opacity: 1; stroke-width: 1px;"/><path class="xgrid crisp" transform="translate(946.84,0)" d="M0,100v470" style="stroke: rgb(235, 240, 248); stroke-opacity: 1; stroke-width: 1px;"/><path class="xgrid crisp" transform="translate(1071.8600000000001,0)" d="M0,100v470" style="stroke: rgb(235, 240, 248); stroke-opacity: 1; stroke-width: 1px;"/><path class="xgrid crisp" transform="translate(1195.52,0)" d="M0,100v470" style="stroke: rgb(235, 240, 248); stroke-opacity: 1; stroke-width: 1px;"/></g><g class="y"><path class="ygrid crisp" transform="translate(0,554.89)" d="M80,0h1240" style="stroke: rgb(235, 240, 248); stroke-opacity: 1; stroke-width: 1px;"/><path class="ygrid crisp" transform="translate(0,501.11)" d="M80,0h1240" style="stroke: rgb(235, 240, 248); stroke-opacity: 1; stroke-width: 1px;"/><path class="ygrid crisp" transform="translate(0,447.34)" d="M80,0h1240" style="stroke: rgb(235, 240, 248); stroke-opacity: 1; stroke-width: 1px;"/><path class="ygrid crisp" transform="translate(0,393.56)" d="M80,0h1240" style="stroke: rgb(235, 240, 248); stroke-opacity: 1; stroke-width: 1px;"/><path class="ygrid crisp" transform="translate(0,339.78)" d="M80,0h1240" style="stroke: rgb(235, 240, 248); stroke-opacity: 1; stroke-width: 1px;"/><path class="ygrid crisp" transform="translate(0,286)" d="M80,0h1240" style="stroke: rgb(235, 240, 248); stroke-opacity: 1; stroke-width: 1px;"/><path class="ygrid crisp" transform="translate(0,232.23)" d="M80,0h1240" style="stroke: rgb(235, 240, 248); stroke-opacity: 1; stroke-width: 1px;"/><path class="ygrid crisp" transform="translate(0,178.45)" d="M80,0h1240" style="stroke: rgb(235, 240, 248); stroke-opacity: 1; stroke-width: 1px;"/><path class="ygrid crisp" transform="translate(0,124.67)" d="M80,0h1240" style="stroke: rgb(235, 240, 248); stroke-opacity: 1; stroke-width: 1px;"/></g></g><g class="zerolinelayer"/><g class="layer-between"><g class="shapelayer"/><g class="imagelayer"/></g><path class="xlines-below"/><path class="ylines-below"/><g class="overlines-below"/><g class="xaxislayer-below"/><g class="yaxislayer-below"/><g class="overaxes-below"/><g class="overplot"><g class="xy" transform="translate(80,100)" clip-path="url(#clip960182xyplot)"><g class="scatterlayer mlayer"><g class="trace scatter traced7ae0a" style="stroke-miterlimit: 2; opacity: 1;"><g class="fills"/><g class="errorbars"/><g class="lines"><path class="js-line" d="M0,395.97L0.68,397.12L2.72,397.6L4.08,398.89L4.76,396.27L5.44,398.12L7.47,396.79L8.15,398.02L8.83,397.25L10.19,391.77L12.91,391.5L14.27,389.98L14.95,393.1L16.99,395.61L17.67,392.69L18.35,399.62L19.02,396.71L19.7,400.79L21.74,398.45L23.1,394.27L23.78,395.47L24.46,394.53L26.5,388.72L27.86,384.98L28.54,383.51L29.22,381.72L31.93,378.09L32.61,373.48L33.29,377.22L33.97,386.38L36.01,395.93L37.37,399.67L38.05,407.66L38.73,404.28L40.77,399.74L41.45,401.44L42.13,393.65L42.81,398.24L43.48,397.14L45.49,409.35L46.17,404.51L46.85,403.78L47.53,419.13L48.21,407.94L50.25,419.82L50.93,412.54L51.61,418.88L52.29,417.27L52.97,417.77L55.01,413.1L55.69,402.58L56.37,406.23L57.05,399.64L57.73,401.76L59.76,398.82L61.12,408.46L61.8,406.55L62.48,410.91L64.52,399.6L65.2,399.51L65.88,396.68L66.56,397.63L69.28,391.75L70.63,382.45L71.31,377.95L71.99,378.76L74.03,377.91L74.71,387.2L75.39,380.32L76.75,379.72L78.79,379.01L80.15,385.51L80.83,388.42L81.51,394.18L83.54,388.03L85.58,389.43L86.26,386.59L88.3,380.73L88.98,385.28L89.66,388.9L90.34,383.56L91.02,384.27L93.06,383.35L94.42,379.24L95.09,383.23L95.77,382.04L98.49,386.59L99.85,389.91L100.53,385.18L103.25,385.78L103.93,387.64L104.61,387.87L105.29,386.79L107.33,387.09L108,379.24L108.68,376.83L109.36,387.41L110.04,385.87L112.08,383.17L114.12,384.63L114.8,384.2L116.84,382.98L117.52,384.75L119.56,393.68L121.59,393.26L122.95,387.99L123.63,388.54L126.35,386.1L127.03,387.18L127.71,386.03L128.39,377.25L129.07,380.41L131.11,385.67L132.46,381.65L133.14,382.61L133.82,382.34L135.86,376.78L136.54,377.84L137.22,366.85L137.9,371.94L138.58,349.38L140.62,350.37L141.3,353.49L142.66,329.18L143.34,330.95L145.37,330.4L146.05,313.48L146.73,312.86L147.41,309.65L148.09,313.92L150.13,319.91L150.81,332.21L151.49,319.06L152.85,322.07L154.89,319.49L156.25,322.55L156.93,318.69L157.6,316.3L159.64,317.98L160.32,310.47L161,311.23L161.68,316.33L165.08,297.09L165.76,301.59L167.12,320.44L169.83,328.06L170.51,320.67L171.19,327.39L171.87,333.45L173.91,329.87L174.59,327.51L175.27,332.72L175.95,332.97L176.63,336.69L178.67,329.78L179.35,330.33L180.03,337.15L180.71,334.64L181.39,329.51L183.42,326.24L185.46,313.89L186.14,320.92L188.18,310.93L188.86,314.77L189.54,309.69L190.22,310.11L190.9,317.93L192.94,315.2L193.62,312.93L195.65,317.77L197.69,320.46L198.37,321.47L199.05,326.89L199.73,326.38L200.41,320.55L202.45,319.93L203.13,327.62L203.81,333.31L204.49,329.59L205.17,335.86L207.23,337.21L207.91,332.9L208.59,321.95L209.95,311.55L211.99,317.89L212.67,329.66L213.35,322.11L214.03,320.83L214.71,321.77L216.75,316.49L217.42,317.34L218.1,319.22L218.78,312.33L219.46,314.4L221.5,312.86L222.18,313.41L222.86,309.65L224.22,308.48L226.26,295.99L226.94,296.06L227.62,293.51L228.3,296.79L228.98,292.82L231.01,292.76L231.69,295.39L232.37,302.49L233.05,298.29L233.73,298.31L235.77,291.13L236.45,285.75L237.13,286.37L237.81,286.4L238.49,288.51L241.88,298.54L242.56,297.94L245.28,298.42L245.96,300.67L246.64,296.84L247.32,298.17L250.72,295.74L251.4,301.34L252.08,290.25L252.76,291.58L254.79,285.46L255.47,289.81L257.51,306.21L260.23,303.36L260.91,304.97L261.59,298.59L262.27,295.69L264.31,292.62L264.99,291.29L265.67,304.76L267.02,312.1L269.06,307.47L269.74,304.71L270.42,306.94L271.78,306.92L273.82,298.72L274.5,300.01L275.18,296.7L275.86,295.99L276.54,293.44L279.25,298.75L279.93,302.23L280.61,305.22L281.29,303.06L284.01,314.17L284.69,309.12L285.37,319.49L286.05,314.7L288.09,310.38L288.77,315.57L290.13,330.21L290.81,328.45L292.84,338.91L293.52,328.42L294.2,330.74L294.88,322.23L295.56,322.64L297.57,319.31L298.93,319.01L299.61,329.36L300.29,327.21L302.33,324.36L304.37,333.73L305.05,330.99L307.08,331.61L307.76,334.23L309.12,322.55L311.84,321.77L312.52,321.74L313.2,320L313.88,317.36L314.56,318.71L316.6,328.31L317.28,324.61L317.96,328.38L318.63,318.14L319.31,320.11L321.35,322.5L322.03,326.73L322.71,321.35L323.39,327.21L324.07,318.71L326.11,312.63L326.79,313.09L330.86,328.38L331.54,328.24L332.9,329.89L333.58,327.78L335.62,334.25L336.3,332.33L337.66,340.91L338.34,337.47L341.06,337.81L341.74,333.7L342.42,329.5L343.09,331.55L345.81,329.96L346.49,328.86L347.17,328.68L347.85,324.87L350.57,323.19L351.25,320.53L351.93,324.41L352.61,321.42L354.65,321.95L355.33,323.01L356,325.14L356.68,321.47L357.36,322.04L359.4,321.49L360.76,324.8L361.44,314.58L362.12,314.38L364.16,319.1L365.52,316.28L366.2,311.05L366.88,312.15L368.91,308.8L370.27,293.08L370.95,294.5L371.63,291.31L374.35,291.84L375.71,302.69L376.39,300.03L378.43,300.24L379.11,301.5L381.14,311.53L383.18,309.95L383.86,308.73L384.54,303.45L385.9,297.16L387.94,297.92L388.62,299.73L389.3,283.9L390.66,264.94L392.69,259.34L394.05,236.06L394.73,250.8L395.41,255.94L397.45,261.75L398.13,264.27L398.81,261.52L399.49,264.23L400.17,254.93L402.89,261.79L403.57,271.25L404.25,270.65L404.93,268.47L406.96,259.02L407.64,261.59L408.32,260.09L409,262.46L409.68,252.98L411.72,253.16L413.76,258.03L414.44,256.38L417.16,258.14L417.83,264.98L418.51,265.03L419.19,267.21L421.23,268.13L421.91,265.99L422.59,266.29L423.27,264.87L423.95,270.24L425.99,275.59L428.03,265.03L428.71,265.83L430.74,260.42L431.42,275.66L432.1,278.34L432.78,272.49L433.46,273.52L435.5,278.36L436.86,270.79L437.54,264.34L438.22,267.53L440.26,268.4L440.94,267.58L441.62,258.12L442.97,251.33L445.01,241.43L446.37,241.53L447.05,234.78L447.73,233.65L449.77,227.82L450.45,226.51L451.13,228.01L452.49,232.71L454.53,221.24L455.88,209.07L456.56,193.07L457.24,195.74L459.31,164.01L459.99,166.86L460.67,187.63L462.03,169.23L464.07,172.44L464.75,158.76L465.42,161.31L466.78,151.96L468.82,158.6L469.5,164.57L470.18,146.48L471.54,153.34L473.58,137.05L474.26,145.17L474.94,166.42L475.62,162.82L476.3,178.13L478.33,189.49L479.01,176.2L479.69,175.31L480.37,191.7L481.05,190.66L483.09,201.57L483.77,197.43L484.45,172.42L485.81,192.5L487.85,196.97L488.53,177.58L489.21,178.43L489.88,173.24L492.6,154.37L493.28,157.15L494.64,175.51L495.32,178.38L497.36,163.83L498.04,177.19L498.72,196.17L499.4,195.99L500.08,205.7L502.12,205.7L502.79,193.51L503.47,193.14L504.15,204L504.83,194.5L507.55,205.86L509.59,235.97L511.63,241.2L513.67,273.18L514.35,267.12L517.74,226.9L518.42,233.06L519.1,224.98L521.14,224.82L522.5,203.75L523.18,220L523.86,248.89L525.9,246.39L526.58,229.87L527.25,238.54L527.93,250.75L528.61,247.4L531.33,243.22L532.01,256.73L533.37,230.81L535.41,225.57L536.09,247.4L536.77,237.19L538.13,259.84L540.16,272.37L540.84,266.45L541.52,253.78L542.88,269.3L544.89,273.98L546.25,243.87L546.93,252.31L547.61,248.25L549.65,242.6L551.01,247.19L551.69,232.02L552.37,234L554.4,232.69L555.08,225.83L555.76,235.03L557.12,260.35L559.16,254.98L560.52,270.72L561.2,270.61L561.88,276.85L563.92,285.18L564.6,290.39L565.28,284.33L565.96,295.07L568.67,293.17L569.35,286.19L570.03,292.87L571.39,306.37L573.43,300.51L574.79,313.78L575.47,302.92L576.15,312.38L578.19,302.46L578.86,299.5L579.54,280.48L580.22,293.21L580.9,289.84L582.94,310.45L583.62,305.01L584.98,308.85L585.66,290.35L587.7,292.37L588.38,273.48L589.06,287.68L589.74,286.79L590.42,294.06L592.45,290.46L593.13,299.43L593.81,296.01L594.49,282.01L595.17,273.96L597.89,274.88L598.57,276.34L599.25,259.43L599.93,264.68L601.97,266.18L602.65,267.03L603.33,274.78L606.72,309.01L607.4,309.01L608.08,303.7L608.76,320.34L609.44,321.45L612.16,316.35L612.84,316.44L613.52,319.47L614.2,308.8L616.23,310.91L617.59,329.66L618.27,333.15L618.95,339.58L621.67,336.07L622.35,335.72L623.03,326.66L623.71,326.54L625.75,332.05L626.43,333.4L627.11,330.74L627.79,328.26L628.46,322.5L630.5,321.77L631.18,311.55L632.54,299.6L633.22,306.46L635.26,307.74L635.94,313L637.98,291.84L640.02,286.54L640.69,280.77L641.37,283.53L642.05,270.17L642.73,273.84L644.77,278.98L645.45,289.38L646.13,281.33L646.81,283.46L647.49,277.24L649.53,276.83L650.21,278.69L650.89,283.12L651.57,278.13L652.25,288.44L654.96,296.38L655.64,295.83L656.32,285.62L657,299.39L659.72,309.12L660.4,313.87L661.76,324.5L664.48,327.99L665.16,325.94L665.83,318.67L666.51,312.54L668.55,314.4L669.23,331.87L669.91,330.9L670.59,332.72L671.27,333.06L673.31,332.46L674.67,337.72L675.35,349.15L676.03,352.68L678.06,356.49L679.42,351.77L680.1,361.45L680.78,363.24L682.82,356.93L684.18,352.73L684.86,352.94L685.54,374.53L687.58,375.98L688.26,376.39L688.94,375.89L689.62,373.39L690.29,380.27L693.01,375.73L693.69,377.31L695.05,373.66L697.09,373.94L697.77,367.58L698.45,371.57L699.13,374.17L699.81,366.34L703.2,374.1L703.88,370.7L704.56,365.93L706.63,363.89L707.31,362.12L707.99,371.14L709.35,342.56L711.39,339.9L712.07,333.38L712.75,341.8L713.42,339.05L714.1,339.81L716.14,342.36L716.82,335.95L717.5,333.31L718.86,336.2L720.9,340.68L721.58,340.22L722.26,330.49L722.94,330.83L723.62,336.57L725.65,339.69L726.33,347.38L727.01,347.68L727.69,346.92L728.37,351.24L730.41,346.46L731.09,344.21L731.77,350.46L733.13,358.54L735.17,360.42L735.85,359.36L736.53,353.33L737.21,362.09L737.88,360.58L741.28,365.06L741.96,359.89L742.64,360.01L745.36,361.73L746.04,360.26L746.72,365.61L749.44,354.34L750.12,352.48L752.15,345.71L754.87,344.35L755.55,346.79L756.23,353.26L758.95,333.01L759.63,337.21L761.67,335.61L763.7,342.38L764.38,336.18L765.06,314.4L765.74,305.98L766.42,311.07L768.46,316.6L769.14,311.48L771.18,321.65L773.22,317.87L773.9,311.39L774.58,313.16L775.93,328.49L778.65,332.46L779.33,332.83L780.01,325.62L780.69,329.43L782.73,327.87L784.09,328.97L784.77,324.04L785.45,321.56L787.48,322.39L788.16,320.21L788.84,312.72L790.2,318.92L792.21,320.44L794.93,284.1L796.97,286.47L797.65,288.49L798.33,284.7L799.01,278.5L799.69,283.85L801.73,286.93L802.4,291.63L804.44,283.71L806.48,287.04L807.16,288.62L807.84,296.22L808.52,296.43L811.24,289.52L813.28,297.3L813.96,298.08L816.67,302.6L817.35,302.23L818.03,301.84L818.71,305.7L820.75,307.67L821.43,316.33L823.47,303.54L825.51,302.81L826.19,302.3L826.86,321.33L828.22,302.46L830.26,290.53L830.94,290.48L831.62,285.98L832.3,285.8L832.98,290.02L835.02,285.11L835.7,275.75L837.06,260.94L837.74,265.79L840.45,260.51L841.13,260.16L842.49,217.1L845.21,221.14L845.89,237.35L846.57,234.46L847.25,238.15L849.29,237.99L849.97,223.53L850.65,238.22L852,221.95L854.04,212.15L854.72,222.84L855.4,216.42L856.76,233.06L859.48,235.7L860.84,254.59L861.52,256.17L863.56,261.91L864.23,255.3L864.91,255.8L865.59,253.35L866.27,247.22L868.31,242.83L870.35,248.2L871.03,248.92L873.07,247.98L873.75,253.16L875.11,242.6L875.79,242.56L877.82,237.1L878.5,237.99L879.18,241.43L879.86,255.62L880.54,254.01L882.58,254.79L883.26,249.31L883.94,255.99L885.3,249.4L887.34,246.09L888.02,238.75L888.69,257.68L890.05,242.83L892.09,240.56L893.45,255.11L894.13,255.66L894.81,261.77L896.85,251.65L897.53,253.09L898.21,262.64L898.89,268.95L899.57,266.64L901.6,260.28L902.28,266.15L902.96,257.5L903.64,275.01L904.32,273.98L906.36,273.15L907.72,264.02L908.4,266.02L909.08,257.45L911.8,254.4L913.83,265.17L915.87,266.93L916.55,266.96L917.23,261.45L917.91,263.93L918.59,275.72L920.63,273.7L921.31,275.45L921.99,278.36L922.67,288.07L923.35,287.87L925.39,285.16L926.06,288.42L926.74,283.57L928.1,272.67L930.14,271.64L930.82,278.96L931.5,269.8L932.18,272.47L932.86,262.53L934.9,263.15L935.58,258.46L936.26,260.07L936.94,258.97L937.62,267.46L939.65,264.32L940.33,267.35L941.01,274.16L941.69,273.64L942.37,274.99L944.41,279.12L945.09,275.31L946.45,293.67L947.13,287.34L949.17,287.91L949.85,282.59L950.53,260.69L951.2,261.17L951.88,251.03L953.95,252.18L954.63,248.27L955.99,248.18L956.67,236.48L958.71,240.61L959.39,233.52L960.07,237.83L960.75,233.63L961.42,231.82L963.46,229.73L964.14,235.17L964.82,227.48L966.18,227.94L968.22,227.16L968.9,228.63L969.58,224.4L970.26,230.58L970.94,230.05L972.98,236.52L973.65,236.96L974.33,240.54L975.69,212.77L977.73,200.17L979.09,191.49L979.77,191.93L980.45,189.29L982.49,189.86L983.17,186.99L983.85,197.73L984.53,187.54L985.21,188.25L987.92,179.51L989.28,167.23L989.96,170.33L993.36,198.08L994.04,196.49L997.44,166.08L998.12,167.73L998.79,168.93L999.47,172.28L1003.55,135.3L1004.23,108.77L1006.27,122.65L1006.95,122.1L1008.31,94.77L1008.99,101.84L1011.02,100.51L1011.7,113.75L1012.38,123.78L1013.06,117.38L1013.74,100.9L1015.78,108.77L1016.46,123.34L1017.14,116.32L1017.82,119.97L1018.5,112.79L1021.22,114.94L1021.9,98.51L1026.65,131.58L1027.33,91.26L1028.01,103.51L1030.05,104.68L1030.73,100.12L1031.41,103.47L1032.77,43.56L1034.81,37.32L1035.48,37.85L1036.16,25.22L1036.84,23.5L1037.52,32.66L1039.53,53.32L1040.21,43.29L1041.57,79.32L1042.25,70.14L1044.29,71.08L1044.97,92.27L1046.33,98.55L1047.01,96.33L1049.73,100.41L1050.4,96.47L1053.8,87.86L1054.48,98.51L1055.16,93.76L1055.84,128.05L1056.52,117.51L1058.56,118.71L1059.24,116.69L1059.92,125.04L1060.6,117.33L1061.28,133.9L1063.31,140.7L1063.99,133.49L1064.67,155.16L1065.35,152.72L1066.03,172.09L1068.07,167.5L1068.75,159.17L1069.43,160.39L1070.79,147.4L1072.83,140.97L1073.51,145.15L1074.19,177.53L1074.86,173.2L1075.54,163.01L1077.58,151.12L1078.26,154.21L1080.3,159.98L1082.34,163.1L1083.02,157.13L1083.7,142.19L1085.06,131.17L1087.09,126.9L1087.77,130.73L1088.45,128.76L1089.13,140.44L1089.81,126.83L1092.53,114.78L1093.21,129.63L1094.57,125.59L1096.61,133.28L1097.29,141.45L1097.97,127.27L1099.33,123.37L1101.36,140.65L1102.04,143.82L1102.72,140.88L1106.12,145.1L1106.8,153.76L1108.16,137.34L1108.84,138.61L1111.56,140.86L1112.23,147.08L1113.59,136.36L1115.63,146.73L1116.31,131.54L1116.99,132.48L1118.35,114.12L1120.39,98.53L1121.07,102.18L1121.75,86.44L1122.43,91.07L1123.11,91.83L1125.14,95.92L1125.82,101.15L1126.5,142.74L1127.86,160.76L1129.9,150.91L1130.58,155.2L1131.26,176.71L1131.94,191.19L1132.62,187.36L1134.66,187.91L1135.34,190.92L1136.02,177.05L1136.69,204.46L1137.37,204.55L1139.41,199.22L1140.77,213.34L1141.45,195.78L1142.13,200.49L1144.17,194.75L1146.21,170.44L1146.89,167.69L1150.28,146.46L1150.96,160.48L1151.64,152.95L1153.68,164.41L1154.36,163.23L1155.04,172.74L1155.72,174.73L1156.4,167.69L1159.12,194.36L1159.8,185.34L1160.48,188.62L1161.16,200.3L1163.19,191.58L1163.87,180.82L1165.23,162.61L1165.91,159.08L1167.95,159.61L1168.63,162.5L1169.31,168.31L1169.99,148.91L1170.67,150.73L1172.71,148.89L1173.39,145.29L1174.06,136.79L1174.74,124.24L1175.42,131.45L1177.46,132.07L1178.14,142L1178.82,141.93L1179.5,134.89L1180.18,116.41L1182.22,116.25L1182.9,112.05L1183.58,116.14L1184.26,131.84L1184.94,123.32L1186.97,129.33L1187.65,149.14L1189.01,150.04L1189.69,150.68L1191.73,146.25L1192.41,154.99L1193.09,157.7L1193.77,156.49L1194.45,150.08L1196.49,141.61L1197.17,127.08L1197.85,167.6L1199.2,183.07L1201.27,185.71L1201.95,183.52L1202.63,175.63L1203.31,164.8L1203.99,169.09L1206.03,170.46L1206.71,179L1208.75,199.04L1210.78,189.79L1211.46,188.73L1212.14,192.84L1212.82,193.1L1213.5,191.12L1215.54,184.74L1216.22,192.57L1216.9,195.96L1218.26,193.82L1221.65,178.18L1222.33,184.21L1225.73,215.47L1226.41,209.94L1227.09,208.91L1227.77,217.38L1229.81,217.88L1230.49,221.72L1231.85,235.81L1232.53,235.05L1235.24,218.8L1236.6,221.63L1237.28,221.33L1239.32,227.64L1240,231.43" style="vector-effect: none; fill: none; stroke: rgb(41, 98, 255); stroke-opacity: 1; stroke-width: 1.8px; opacity: 1;"/></g><g class="points"/><g class="text"/></g><g class="trace scatter trace559d21" style="stroke-miterlimit: 2; opacity: 1;"><g class="fills"/><g class="errorbars"/><g class="lines"><path class="js-line" d="M0,401.11L9.51,401.11L10.19,399.55L13.59,398.48L14.27,397.88L14.95,400.79L16.99,403.13L17.67,400.41L18.35,406.88L19.7,409.06L21.74,409.06L26.5,409.06L27.18,407.98L27.86,407.81L28.54,406.61L29.22,405.15L31.93,402.19L32.61,398.43L33.29,401.48L33.97,408.95L36.01,416.74L37.37,412.95L38.05,412.95L55.69,412.95L56.37,417.37L57.05,411.49L57.73,413.38L59.76,410.76L60.44,415.63L61.12,419.35L61.8,417.65L62.48,421.54L64.52,411.45L65.2,411.37L65.88,408.85L66.56,409.69L69.28,404.46L70.63,396.17L71.31,392.16L71.99,392.88L74.03,392.12L74.71,400.41L75.39,394.27L76.75,393.74L78.79,393.1L80.15,398.89L80.83,401.49L81.51,404.19L83.54,404.19L94.42,404.19L95.09,407.93L95.77,407.71L98.49,407.71L108.68,407.71L109.36,413.32L110.04,412.11L112.08,413.78L113.44,413.78L114.12,414.78L114.8,414.14L116.84,414.14L127.71,414.14L128.39,407.54L129.07,409.97L131.11,414.02L132.46,410.93L133.14,411.67L133.82,411.46L135.86,407.18L136.54,407.99L137.22,399.53L137.9,403.45L138.58,386.09L140.62,386.85L141.3,389.25L142.66,370.55L143.34,371.91L145.37,371.49L146.05,358.47L146.73,357.99L147.41,355.52L148.09,358.8L150.13,363.41L150.81,372.88L151.49,362.76L152.85,365.07L154.89,363.68L184.78,363.68L185.46,360.54L186.14,365.88L188.18,358.28L188.86,361.2L189.54,357.34L190.22,357.66L190.9,363.61L193.62,359.8L194.29,361.67L195.65,363.49L197.69,362.7L209.27,362.7L209.95,358.58L211.99,363.4L212.67,372.37L214.03,365.64L214.71,366.35L216.75,362.33L217.42,362.98L218.1,364.41L218.78,359.17L219.46,360.74L221.5,359.57L222.18,359.99L222.86,357.13L224.22,356.23L226.26,346.73L226.94,346.78L227.62,344.84L228.3,347.34L228.98,344.31L231.01,344.26L231.69,346.27L232.37,351.67L233.05,348.47L233.73,348.49L235.77,343.02L236.45,338.93L237.13,339.4L237.81,339.42L240.53,345.73L241.21,345.5L254.79,345.5L255.47,349.68L256.83,355.66L257.51,355.66L264.99,355.66L265.67,359.45L267.02,357.79L269.06,357.79L274.5,357.79L275.18,356.39L275.86,355.88L276.54,354.05L279.25,357.86L279.93,360.36L280.61,362.51L281.29,360.96L284.69,371.15L285.37,371.15L297.57,371.15L298.25,372.64L298.93,372.84L299.61,380.25L300.29,378.71L302.33,376.67L304.37,383.38L305.05,382.72L308.44,382.72L309.12,381.25L312.52,380.7L313.2,379.51L313.88,377.7L314.56,378.63L316.6,385.19L317.28,382.66L317.96,385.24L318.63,378.23L319.31,379.58L321.35,381.22L322.03,384.11L322.71,380.43L323.39,384.44L324.07,378.63L326.11,374.46L326.79,374.78L331.54,386.18L332.22,386.18L345.13,385.9L345.81,385.23L347.17,384.35L347.85,381.71L350.57,380.56L351.25,378.72L351.93,381.4L352.61,379.34L355.33,380.43L356,381.9L356.68,379.37L357.36,379.76L359.4,379.38L360.08,381.1L360.76,381.67L361.44,374.61L362.12,374.47L364.16,377.73L365.52,375.78L366.2,372.17L366.88,372.93L368.91,370.62L370.27,359.76L370.95,360.74L371.63,358.54L374.35,358.9L375.71,366.4L376.39,364.56L378.43,364.7L379.11,365.57L380.46,364.78L381.14,364.78L389.3,364.78L389.98,355.29L390.66,350.46L392.69,346.83L394.05,331.72L394.73,341.29L395.41,344.62L397.45,348.39L398.13,350.03L398.81,348.24L399.49,350L400.17,349L437.54,349L438.22,351.24L440.94,351.27L441.62,345.09L442.97,340.66L445.01,334.2L446.37,334.26L447.05,329.85L447.73,329.12L449.77,325.31L450.45,324.46L451.13,325.43L452.49,328.51L454.53,321.01L455.88,313.07L456.56,302.63L457.24,304.36L459.31,283.66L459.99,285.51L460.67,299.07L462.03,287.06L464.07,289.15L464.75,280.22L465.42,281.89L466.78,275.79L468.82,280.12L469.5,284.01L470.18,272.21L471.54,276.69L473.58,272.66L474.26,279.75L474.94,276.86L492.6,276.86L493.28,280.92L495.32,294.68L497.36,285.25L498.72,306.2L499.4,306.14L500.08,306.14L518.42,306.14L519.1,300.66L521.14,300.54L521.82,292.86L522.5,285.09L523.18,297L523.86,318.19L525.9,316.36L526.58,304.24L527.25,310.6L527.93,319.56L528.61,317.1L531.33,314.04L532.01,323.94L532.69,332.7L533.37,326.84L535.41,323.42L536.09,337.7L536.77,331.02L537.45,340.48L538.13,345.84L540.16,345.66L546.93,346.32L547.61,343.74L549.65,340.17L550.33,341.82L551.01,343.07L551.69,333.47L552.37,334.72L554.4,333.89L555.08,329.54L555.76,335.37L557.12,351.4L559.16,348L560.52,349.23L561.2,349.23L578.86,349.23L579.54,347.22L580.22,356.23L580.9,353.84L582.94,368.43L583.62,364.58L584.98,367.29L585.66,354.2L587.7,355.63L588.38,342.26L589.06,352.32L589.74,351.68L590.42,356.83L592.45,354.28L593.13,360.63L593.81,358.21L594.49,348.31L595.17,342.61L597.89,343.25L598.57,344.29L599.25,332.33L599.93,336.04L601.97,337.1L602.65,337.7L603.33,343.19L604.68,354.69L606.72,360.47L627.79,359.77L628.46,355.01L630.5,354.41L631.18,345.98L632.54,336.11L633.22,341.77L635.26,342.83L635.94,347.17L637.98,329.7L640.02,325.33L640.69,320.57L641.37,322.85L642.05,311.82L642.73,314.85L644.77,319.09L645.45,327.68L646.13,321.03L646.81,322.79L647.49,317.65L649.53,317.31L650.21,318.85L650.89,322.5L652.25,323.51L654.28,323.51L684.86,323.43L685.54,349.12L688.26,352.2L688.94,352.2L693.69,352.46L694.37,350.99L695.05,348.12L697.09,348.45L697.77,340.89L698.45,345.64L699.13,348.72L699.81,339.41L703.2,348.64L703.88,344.6L704.56,338.92L706.63,336.49L707.31,334.39L707.99,345.12L709.35,311.14L711.39,307.97L712.07,300.22L712.75,310.24L713.42,306.96L714.1,307.86L716.14,310.89L716.82,303.28L717.5,300.14L718.86,303.58L720.9,308.9L721.58,308.35L722.26,296.78L722.94,297.19L723.62,304.01L725.65,307.73L726.33,316.87L727.69,318.89L728.37,318.89L749.44,318.89L750.12,314.96L752.15,306.56L754.87,304.88L755.55,307.9L756.23,315.93L758.95,290.82L759.63,296.03L761.67,294.04L763.7,302.44L764.38,294.75L765.06,267.74L765.74,257.29L766.42,263.61L768.46,270.47L769.14,264.12L771.18,276.73L773.22,272.03L773.9,264.01L774.58,266.2L775.93,282.08L778.65,282.08L788.84,282.08L789.52,285.43L790.2,289.04L792.21,290.8L794.93,248.74L796.97,251.48L797.65,253.82L798.33,249.43L799.01,242.26L799.69,248.45L801.73,252.01L802.4,257.46L804.44,248.29L806.48,252.14L807.84,250.87L808.52,250.87L830.94,250.41L831.62,245.09L832.3,244.87L832.98,249.87L835.02,244.05L835.7,232.97L837.06,215.45L837.74,221.18L840.45,214.93L841.13,214.52L842.49,163.56L845.21,168.34L845.89,187.52L846.57,184.09L847.25,188.47L849.29,188.28L849.97,171.16L850.65,188.55L852,169.29L854.04,157.69L854.72,170.35L855.4,162.74L856.08,171.13L856.76,166.84L877.82,166.84L878.5,165.74L879.18,170.1L879.86,188.07L880.54,185.98L882.58,185.98L888.02,185.98L888.69,213.36L890.05,214.44L892.09,213.3L893.45,229.33L894.13,227.24L909.08,227.24L911.8,222.64L913.83,234.75L915.87,236.74L916.55,236.76L917.23,230.57L917.91,233.35L918.59,246.63L921.31,248.37L921.99,248.37L928.1,248.37L930.14,245.67L930.82,253.79L931.5,243.63L932.18,246.59L932.86,235.56L934.9,236.25L935.58,231.05L936.26,232.83L936.94,231.61L937.62,241.03L939.65,237.55L940.33,240.91L941.01,248.47L942.37,248.19L944.41,248.19L951.2,248.5L951.88,237.84L953.95,239.05L954.63,234.94L955.99,234.85L956.67,222.54L958.71,226.89L959.39,219.43L960.07,223.97L960.75,219.55L961.42,217.65L963.46,215.45L964.14,221.17L964.82,213.09L966.18,213.57L968.22,212.75L968.9,214.29L969.58,209.85L970.26,216.34L970.94,215.79L972.98,219.74L975.69,219.74L977.73,211.22L979.09,202.86L979.77,203.28L980.45,200.74L982.49,201.29L983.17,198.52L983.85,208.88L984.53,199.05L985.21,199.74L987.92,191.31L989.28,179.47L989.96,182.46L994.04,208.35L994.72,208.35L1002.19,208.35L1002.87,205.09L1003.55,200.35L1004.23,178.44L1006.27,189.91L1006.95,189.45L1008.31,166.88L1008.99,172.71L1011.02,171.62L1011.7,182.55L1012.38,190.83L1013.06,185.55L1013.74,179.27L1015.78,179.27L1032.09,179.27L1032.77,171.4L1034.81,166.87L1035.48,167.26L1036.84,156.85L1037.52,163.49L1039.53,178.47L1040.21,171.2L1041.57,187.58L1042.25,187.58L1072.83,187.58L1073.51,192.08L1074.19,220.28L1074.86,216.5L1075.54,211.33L1077.58,206.12L1080.3,213.62L1082.34,216.26L1083.02,211.21L1083.7,198.57L1085.06,189.24L1087.09,185.63L1087.77,188.87L1088.45,187.2L1089.13,197.09L1089.81,185.57L1092.53,175.38L1093.21,187.94L1094.57,184.52L1096.61,191.03L1097.29,197.94L1097.97,185.94L1099.33,182.64L1101.36,197.26L1103.4,196.95L1104.08,196.95L1116.99,197.52L1118.35,182.34L1120.39,169.45L1121.07,172.46L1121.75,159.44L1122.43,163.28L1123.11,163.9L1125.14,167.28L1125.82,171.61L1126.5,206.01L1127.86,198.45L1129.9,198.45L1144.85,198.45L1145.53,203.33L1146.89,186.39L1148.93,171.81L1150.28,166.33L1150.96,179.58L1151.64,172.46L1153.68,183.29L1154.36,182.18L1155.04,191.16L1155.72,193.05L1156.4,186.39L1159.12,211.6L1159.8,203.87L1164.55,203.87L1165.23,199.06L1165.91,195.9L1167.95,196.37L1169.31,204.15L1169.99,186.8L1170.67,188.42L1172.71,186.78L1173.39,183.56L1174.06,175.96L1174.74,164.73L1175.42,171.17L1177.46,171.73L1178.14,180.62L1178.82,180.56L1179.5,174.25L1180.18,157.72L1182.22,157.58L1182.9,153.82L1183.58,157.48L1184.26,171.52L1184.94,163.9L1186.97,169.28L1187.65,173.51L1215.54,173.51L1216.22,184.87L1216.9,188.35L1218.26,186.15L1221.65,170.13L1222.33,176.31L1225.73,208.34L1226.41,206.5L1236.6,206.5L1237.28,204.51L1240,215.2" style="vector-effect: none; fill: none; stroke: rgb(255, 109, 0); stroke-opacity: 1; stroke-width: 1.8px; opacity: 1;"/></g><g class="points"/><g class="text"/></g><g class="trace scatter trace836457" style="stroke-miterlimit: 2; opacity: 1;"><g class="fills"/><g class="errorbars"/><g class="lines"><path class="js-line" d="M0,401.11L292.84,401.11L293.52,398.59L294.2,400.01L294.88,394.81L295.56,395.06L297.57,393.03L298.93,392.84L299.61,399.17L300.29,397.85L302.33,396.11L304.37,401.83L305.05,400.16L307.08,400.54L307.76,402.14L309.12,395L311.84,394.53L312.52,394.51L313.2,393.45L313.88,391.83L314.56,392.66L316.6,398.52L317.28,396.26L317.96,398.56L318.63,392.31L319.31,393.52L321.35,394.97L322.03,397.55L322.71,394.27L323.39,397.85L324.07,392.66L326.79,389.23L327.47,390.9L328.15,391.05L328.83,394.26L331.54,398.48L332.22,399.57L332.9,399.49L333.58,398.2L335.62,402.15L336.3,400.97L337.66,406.22L338.34,404.11L341.06,404.32L341.74,401.81L342.42,399.25L343.09,400.5L345.81,399.53L346.49,398.86L347.17,398.75L347.85,396.42L350.57,395.39L351.25,393.77L351.93,396.14L352.61,394.32L355.33,395.28L356,396.59L356.68,394.34L357.36,394.69L359.4,394.36L360.08,395.87L360.76,396.38L361.44,390.14L362.12,390.01L364.16,392.9L365.52,391.18L366.2,387.98L366.88,388.65L368.91,386.61L370.27,381.36L370.95,381.36L512.31,381.36L512.99,385.63L513.67,394.64L514.35,391.71L517.74,372.24L518.42,375.22L519.1,371.31L521.14,371.23L522.5,361.03L523.18,368.89L523.86,382.89L525.9,381.67L526.58,373.67L527.25,377.87L527.93,383.79L528.61,382.16L531.33,380.14L532.01,386.68L533.37,374.13L535.41,371.59L536.09,382.16L536.77,377.22L538.13,388.19L540.16,394.26L540.84,391.39L541.52,385.25L542.88,392.77L544.89,395.03L546.25,380.45L546.93,384.54L547.61,382.57L549.65,379.84L551.01,382.06L551.69,374.72L552.37,375.67L554.4,375.04L555.08,371.72L555.76,376.17L557.12,388.43L559.16,385.83L560.52,393.46L561.2,393.4L561.88,396.42L563.92,400.46L564.6,402.98L565.28,400.05L565.96,405.25L568.67,404.32L569.35,400.95L570.03,404.18L571.39,410.71L573.43,407.88L574.79,414.3L575.47,409.05L576.15,413.63L578.19,408.83L578.86,407.39L579.54,398.18L580.22,404.35L580.9,402.71L582.94,412.69L583.62,410.06L584.98,411.91L585.66,402.96L587.7,403.94L588.38,394.79L589.06,401.67L589.74,401.23L590.42,404.76L592.45,403.01L593.13,407.36L593.81,405.7L594.49,398.92L595.17,395.02L597.89,395.47L598.57,396.18L599.25,387.99L599.93,390.53L601.97,391.25L602.65,391.67L603.33,395.42L606.72,411.99L607.4,411.99L608.08,409.43L608.76,417.48L609.44,418.02L612.16,415.55L612.84,415.59L613.52,417.06L614.2,411.89L616.23,412.91L617.59,421.99L618.27,423.68L618.95,426.8L621.67,425.1L622.35,424.93L623.03,420.54L623.71,420.48L625.75,423.15L626.43,423.81L627.11,422.52L627.79,421.32L628.46,418.53L630.5,418.17L631.18,413.23L632.54,407.44L633.22,410.76L635.26,411.38L635.94,413.93L637.98,403.68L640.02,401.11L640.69,398.32L641.37,399.66L642.05,393.19L642.73,394.97L644.77,397.46L645.45,402.49L646.13,398.59L646.81,399.62L647.49,396.61L649.53,396.41L650.21,397.31L650.89,399.46L651.57,397.04L652.25,402.03L654.96,405.88L655.64,405.61L656.32,400.67L657,407.34L659.72,412.05L660.4,414.35L661.76,419.49L664.48,421.18L665.16,420.19L665.83,416.67L666.51,413.7L668.55,414.6L669.23,423.06L669.91,422.59L670.59,423.47L671.27,423.64L673.31,423.35L674.67,425.9L675.35,431.43L676.03,433.14L678.06,434.99L679.42,432.7L680.1,437.39L680.78,438.25L682.82,435.2L684.18,433.16L684.86,433.26L685.54,443.72L687.58,444.42L688.94,444.38L689.62,443.17L690.29,446.5L692.33,444.26L694.37,444.47L695.05,443.3L697.09,443.43L697.77,440.35L699.13,443.54L699.81,439.75L703.2,443.51L703.88,441.87L704.56,439.55L706.63,438.56L707.31,437.71L707.99,442.08L709.35,428.24L711.39,426.95L712.07,423.8L712.75,427.87L713.42,426.54L714.1,426.91L716.14,428.14L716.82,425.04L717.5,423.76L718.86,425.16L721.58,427.11L722.26,422.39L722.94,422.56L723.62,425.34L725.65,426.85L726.33,430.57L727.69,430.35L728.37,432.44L731.09,429.04L731.77,432.06L733.13,435.98L735.17,436.89L735.85,436.38L736.53,433.45L737.21,437.7L737.88,436.96L741.28,439.13L741.96,436.63L745.36,437.52L746.04,436.81L746.72,439.4L747.4,437.59L752.15,429.76L754.87,429.11L755.55,430.29L756.23,433.42L758.95,423.62L759.63,425.65L761.67,424.87L763.7,428.15L764.38,425.15L765.06,414.6L766.42,414.99L768.46,414.99L1068.07,414.68L1068.75,412.39L1069.43,412.72L1070.11,411.45L1070.79,409.14L1072.83,407.37L1073.51,408.52L1074.19,417.45L1074.86,416.25L1075.54,413.44L1077.58,410.17L1078.26,411.02L1082.34,413.47L1083.02,411.83L1084.38,405.84L1085.06,404.67L1087.09,403.5L1087.77,404.55L1088.45,404.01L1089.13,407.23L1089.81,403.48L1092.53,400.16L1093.21,404.25L1093.89,403.23L1094.57,403.14L1096.61,405.26L1097.29,407.51L1097.97,403.6L1099.33,402.52L1101.36,407.29L1102.04,408.16L1102.72,407.35L1106.12,408.51L1106.8,410.9L1108.16,406.37L1108.84,406.72L1111.56,407.34L1112.23,409.06L1113.59,406.1L1115.63,408.96L1116.31,404.78L1116.99,405.03L1118.35,399.98L1120.39,395.68L1121.07,396.69L1122.43,392.28L1123.11,392.28L1240,392.28" style="vector-effect: none; fill: none; stroke: rgb(170, 0, 255); stroke-opacity: 1; stroke-width: 1.8px; opacity: 1;"/></g><g class="points"/><g class="text"/></g><g class="trace scatter trace2b65e3" style="stroke-miterlimit: 2; opacity: 1;"><g class="fills"/><g class="errorbars"/><g class="lines"><path class="js-line" d="M0,401.11L23.78,401.11L24.46,399.31L28.54,388.76L29.22,387.04L31.93,387.85L32.61,385.96L33.29,389.35L33.97,397.67L36.69,409.56L37.37,409.29L38.05,409.29L110.04,409.29L112.08,405.32L114.12,406.53L114.8,405.83L132.46,405.12L133.14,405.91L135.86,405.33L136.54,406.77L137.22,398.2L137.9,402.17L138.58,384.6L140.62,385.37L141.3,387.8L141.98,372.64L142.66,368.87L143.34,370.24L145.37,369.81L146.05,356.64L146.73,356.16L147.41,353.65L148.09,356.98L150.13,361.64L150.81,371.23L151.49,360.98L152.85,363.32L154.89,361.32L157.6,366.11L159.64,366.11L165.76,366.11L166.44,374.71L167.12,376.48L169.83,376.48L209.95,376.48L211.99,378.24L212.67,386.29L213.35,384.09L214.03,384.09L214.71,386.05L217.42,387.21L218.1,388.41L219.46,388.63L221.5,388.63L227.62,388.63L228.3,390.86L228.98,390.52L231.01,391.61L232.37,391.64L233.05,388.88L233.73,388.89L235.77,384.8L236.45,381.74L237.13,382.09L237.81,381.18L254.79,381.18L255.47,384.44L256.83,387.5L257.51,387.5L264.99,387.75L265.67,395.25L267.02,396.88L269.06,396.88L269.74,396.88L270.42,397.78L271.78,397.36L273.82,397.36L362.12,397.36L364.16,398.56L366.2,396.16L366.88,397.1L369.59,396.11L370.27,392.26L370.95,393.02L371.63,391.3L374.35,391.59L375.03,396.46L375.71,397.45L376.39,397.08L379.11,398.25L379.79,397.64L384.54,397.64L385.22,395.39L385.9,394.22L387.94,394.63L389.3,393.24L389.98,385.63L390.66,381.76L392.69,378.84L394.05,366.72L394.73,374.4L395.41,377.07L397.45,380.1L398.13,381.41L398.81,379.98L399.49,381.39L400.17,376.55L402.89,380.12L403.57,385.04L404.93,383.6L406.96,378.67L407.64,380.01L408.32,379.44L437.54,379.44L438.22,381.25L441.62,381.78L442.29,380.07L446.37,379.92L447.05,376.66L447.73,376.12L449.77,373.31L450.45,372.68L451.13,373.4L452.49,375.67L454.53,370.14L455.88,364.28L456.56,356.57L457.24,357.85L459.31,342.56L459.99,343.93L460.67,353.94L462.03,345.07L464.07,346.62L464.75,340.03L465.42,341.26L466.78,336.75L468.82,339.95L469.5,342.83L470.18,334.11L471.54,337.42L473.58,329.56L474.26,333.48L474.94,331.27L484.45,331.27L485.13,341.36L485.81,344.18L487.85,344.18L642.05,344.18L642.73,342.13L644.77,345.77L645.45,353.15L646.13,347.43L646.81,348.95L647.49,344.54L649.53,344.24L660.4,344.29L661.08,344.29L758.95,344.29L759.63,342.18L761.67,340.62L763.7,347.19L764.38,341.17L765.06,320.02L765.74,311.84L766.42,316.79L768.46,322.16L769.14,317.19L771.18,327.06L773.22,323.39L773.9,317.1L774.58,318.82L775.93,333.71L778.65,336.72L793.57,336.72L794.25,323.53L794.93,321.15L796.97,323.13L797.65,324.81L798.33,321.65L799.01,316.48L799.69,320.94L801.73,323.51L802.4,327.44L803.08,324.54L803.76,324.77L804.44,324.53L807.16,328.55L807.84,331.4L827.54,331.4L828.22,321.29L831.62,306.31L832.3,306.14L832.98,309.98L835.02,305.52L837.06,283.56L837.74,287.96L840.45,283.16L841.13,282.85L842.49,243.72L845.21,247.39L845.89,262.11L846.57,259.49L847.25,262.84L849.29,262.7L849.97,249.56L850.65,262.91L852,248.12L854.04,239.21L854.72,248.93L855.4,243.09L856.76,258.21L859.48,260.61L860.84,261.54L861.52,261.54L888.69,261.54L889.37,252.01L890.05,245.96L892.09,243.71L893.45,258.09L894.13,258.64L894.81,264.67L896.85,266.53L898.89,270.65L899.57,270.65L955.99,270.77L956.67,260.08L958.71,263.86L959.39,257.38L960.07,261.32L960.75,257.48L961.42,255.83L963.46,253.92L964.82,255.99L966.18,255.99L975.01,255.99L975.69,257.2L979.09,239.12L979.77,239.49L980.45,237.25L982.49,237.74L983.17,235.3L983.85,244.43L984.53,235.77L985.21,236.37L987.92,228.94L989.28,218.51L989.96,221.14L993.36,228.05L994.04,226.62L997.44,199.14L998.12,200.64L998.79,201.72L999.47,204.74L1003.55,171.34L1004.23,147.36L1006.27,159.91L1006.95,159.41L1008.31,134.71L1008.99,141.1L1011.02,139.9L1011.7,151.86L1012.38,160.93L1013.06,155.14L1013.74,140.25L1015.78,147.36L1016.46,160.53L1017.14,154.19L1017.82,157.48L1018.5,150.99L1021.22,152.94L1021.9,148.94L1022.58,153.72L1023.25,152.33L1035.48,152.39L1036.16,142.83L1036.84,141.53L1037.52,148.46L1039.53,164.09L1040.21,160.39L1041.57,170.57L1042.25,170.57L1044.29,175.18L1044.97,188.29L1120.39,188.29L1121.07,189.85L1121.75,177.5L1122.43,181.14L1123.11,181.73L1125.14,184.94L1127.86,185.19L1129.9,185.19L1184.26,185.19L1184.94,177.89L1186.97,183.05L1187.65,187.11L1197.85,187.11L1198.53,195.22L1199.2,194.42L1201.27,194.42L1240,194.42" style="vector-effect: none; fill: none; stroke: rgb(0, 200, 83); stroke-opacity: 1; stroke-width: 1.8px; opacity: 1;"/></g><g class="points"/><g class="text"/></g></g></g></g><g class="zerolinelayer-above"/><path class="xlines-above crisp" d="M0,0" style="fill: none;"/><path class="ylines-above crisp" d="M0,0" style="fill: none;"/><g class="overlines-above"/><g class="xaxislayer-above"><g class="xtick"><text text-anchor="middle" x="0" y="583" transform="translate(202.84,0)" style="font-family: 'Open Sans', verdana, arial, sans-serif; font-size: 12px; fill: rgb(42, 63, 95); fill-opacity: 1; white-space: pre;">Jul 2020</text></g><g class="xtick"><text text-anchor="middle" x="0" y="583" style="font-family: 'Open Sans', verdana, arial, sans-serif; font-size: 12px; fill: rgb(42, 63, 95); fill-opacity: 1; white-space: pre;" transform="translate(327.86,0)">Jan 2021</text></g><g class="xtick"><text text-anchor="middle" x="0" y="583" style="font-family: 'Open Sans', verdana, arial, sans-serif; font-size: 12px; fill: rgb(42, 63, 95); fill-opacity: 1; white-space: pre;" transform="translate(450.84,0)">Jul 2021</text></g><g class="xtick"><text text-anchor="middle" x="0" y="583" style="font-family: 'Open Sans', verdana, arial, sans-serif; font-size: 12px; fill: rgb(42, 63, 95); fill-opacity: 1; white-space: pre;" transform="translate(575.86,0)">Jan 2022</text></g><g class="xtick"><text text-anchor="middle" x="0" y="583" style="font-family: 'Open Sans', verdana, arial, sans-serif; font-size: 12px; fill: rgb(42, 63, 95); fill-opacity: 1; white-space: pre;" transform="translate(698.84,0)">Jul 2022</text></g><g class="xtick"><text text-anchor="middle" x="0" y="583" style="font-family: 'Open Sans', verdana, arial, sans-serif; font-size: 12px; fill: rgb(42, 63, 95); fill-opacity: 1; white-space: pre;" transform="translate(823.86,0)">Jan 2023</text></g><g class="xtick"><text text-anchor="middle" x="0" y="583" style="font-family: 'Open Sans', verdana, arial, sans-serif; font-size: 12px; fill: rgb(42, 63, 95); fill-opacity: 1; white-space: pre;" transform="translate(946.84,0)">Jul 2023</text></g><g class="xtick"><text text-anchor="middle" x="0" y="583" style="font-family: 'Open Sans', verdana, arial, sans-serif; font-size: 12px; fill: rgb(42, 63, 95); fill-opacity: 1; white-space: pre;" transform="translate(1071.8600000000001,0)">Jan 2024</text></g><g class="xtick"><text text-anchor="middle" x="0" y="583" style="font-family: 'Open Sans', verdana, arial, sans-serif; font-size: 12px; fill: rgb(42, 63, 95); fill-opacity: 1; white-space: pre;" transform="translate(1195.52,0)">Jul 2024</text></g></g><g class="yaxislayer-above"><g class="ytick"><text text-anchor="end" x="79" y="4.199999999999999" transform="translate(0,554.89)" style="font-family: 'Open Sans', verdana, arial, sans-serif; font-size: 12px; fill: rgb(42, 63, 95); fill-opacity: 1; white-space: pre;">50k</text></g><g class="ytick"><text text-anchor="end" x="79" y="4.199999999999999" style="font-family: 'Open Sans', verdana, arial, sans-serif; font-size: 12px; fill: rgb(42, 63, 95); fill-opacity: 1; white-space: pre;" transform="translate(0,501.11)">100k</text></g><g class="ytick"><text text-anchor="end" x="79" y="4.199999999999999" style="font-family: 'Open Sans', verdana, arial, sans-serif; font-size: 12px; fill: rgb(42, 63, 95); fill-opacity: 1; white-space: pre;" transform="translate(0,447.34)">150k</text></g><g class="ytick"><text text-anchor="end" x="79" y="4.199999999999999" style="font-family: 'Open Sans', verdana, arial, sans-serif; font-size: 12px; fill: rgb(42, 63, 95); fill-opacity: 1; white-space: pre;" transform="translate(0,393.56)">200k</text></g><g class="ytick"><text text-anchor="end" x="79" y="4.199999999999999" style="font-family: 'Open Sans', verdana, arial, sans-serif; font-size: 12px; fill: rgb(42, 63, 95); fill-opacity: 1; white-space: pre;" transform="translate(0,339.78)">250k</text></g><g class="ytick"><text text-anchor="end" x="79" y="4.199999999999999" style="font-family: 'Open Sans', verdana, arial, sans-serif; font-size: 12px; fill: rgb(42, 63, 95); fill-opacity: 1; white-space: pre;" transform="translate(0,286)">300k</text></g><g class="ytick"><text text-anchor="end" x="79" y="4.199999999999999" style="font-family: 'Open Sans', verdana, arial, sans-serif; font-size: 12px; fill: rgb(42, 63, 95); fill-opacity: 1; white-space: pre;" transform="translate(0,232.23)">350k</text></g><g class="ytick"><text text-anchor="end" x="79" y="4.199999999999999" style="font-family: 'Open Sans', verdana, arial, sans-serif; font-size: 12px; fill: rgb(42, 63, 95); fill-opacity: 1; white-space: pre;" transform="translate(0,178.45)">400k</text></g><g class="ytick"><text text-anchor="end" x="79" y="4.199999999999999" style="font-family: 'Open Sans', verdana, arial, sans-serif; font-size: 12px; fill: rgb(42, 63, 95); fill-opacity: 1; white-space: pre;" transform="translate(0,124.67)">450k</text></g></g><g class="overaxes-above"/></g></g><g class="polarlayer"/><g class="smithlayer"/><g class="ternarylayer"/><g class="geolayer"/><g class="funnelarealayer"/><g class="pielayer"/><g class="iciclelayer"/><g class="treemaplayer"/><g class="sunburstlayer"/><g class="glimages"/><defs id="topdefs-960182"><g class="clips"/><clipPath id="legend960182"><rect width="707" height="29" x="0" y="0"/></clipPath></defs><g class="layer-above"><g class="imagelayer"/><g class="shapelayer"/></g><g class="infolayer"><g class="legend" pointer-events="all" transform="translate(80,61.599999999999994)"><rect class="bg" shape-rendering="crispEdges" style="stroke: rgb(68, 68, 68); stroke-opacity: 1; fill: rgb(255, 255, 255); fill-opacity: 1; stroke-width: 0px;" width="707" height="29" x="0" y="0"/><g class="scrollbox" transform="" clip-path="url(#legend960182)"><g class="groups"><g class="traces" transform="translate(0,14.5)" style="opacity: 1;"><text class="legendtext" text-anchor="start" x="40" y="4.680000000000001" style="font-family: 'Open Sans', verdana, arial, sans-serif; font-size: 12px; fill: rgb(42, 63, 95); fill-opacity: 1; white-space: pre;">Buy &amp; Hold</text><g class="layers" style="opacity: 1;"><g class="legendfill"/><g class="legendlines"><path class="js-line" d="M5,0h30" style="fill: none; stroke: rgb(41, 98, 255); stroke-opacity: 1; stroke-width: 1.8px;"/></g><g class="legendsymbols"><g class="legendpoints"/></g></g><rect class="legendtoggle" x="0" y="-9.5" width="109.65625" height="19" style="fill: rgb(0, 0, 0); fill-opacity: 0;"/></g><g class="traces" transform="translate(112.15625,14.5)" style="opacity: 1;"><text class="legendtext" text-anchor="start" x="40" y="4.680000000000001" style="font-family: 'Open Sans', verdana, arial, sans-serif; font-size: 12px; fill: rgb(42, 63, 95); fill-opacity: 1; white-space: pre;">Trend Following (MACD)</text><g class="layers" style="opacity: 1;"><g class="legendfill"/><g class="legendlines"><path class="js-line" d="M5,0h30" style="fill: none; stroke: rgb(255, 109, 0); stroke-opacity: 1; stroke-width: 1.8px;"/></g><g class="legendsymbols"><g class="legendpoints"/></g></g><rect class="legendtoggle" x="0" y="-9.5" width="188.28125" height="19" style="fill: rgb(0, 0, 0); fill-opacity: 0;"/></g><g class="traces" transform="translate(302.9375,14.5)" style="opacity: 1;"><text class="legendtext" text-anchor="start" x="40" y="4.680000000000001" style="font-family: 'Open Sans', verdana, arial, sans-serif; font-size: 12px; fill: rgb(42, 63, 95); fill-opacity: 1; white-space: pre;">Mean Reversion (RSI+BB)</text><g class="layers" style="opacity: 1;"><g class="legendfill"/><g class="legendlines"><path class="js-line" d="M5,0h30" style="fill: none; stroke: rgb(170, 0, 255); stroke-opacity: 1; stroke-width: 1.8px;"/></g><g class="legendsymbols"><g class="legendpoints"/></g></g><rect class="legendtoggle" x="0" y="-9.5" width="200.65625" height="19" style="fill: rgb(0, 0, 0); fill-opacity: 0;"/></g><g class="traces" transform="translate(506.09375,14.5)" style="opacity: 1;"><text class="legendtext" text-anchor="start" x="40" y="4.680000000000001" style="font-family: 'Open Sans', verdana, arial, sans-serif; font-size: 12px; fill: rgb(42, 63, 95); fill-opacity: 1; white-space: pre;">Custom (EMA+ATR+OBV)</text><g class="layers" style="opacity: 1;"><g class="legendfill"/><g class="legendlines"><path class="js-line" d="M5,0h30" style="fill: none; stroke: rgb(0, 200, 83); stroke-opacity: 1; stroke-width: 1.8px;"/></g><g class="legendsymbols"><g class="legendpoints"/></g></g><rect class="legendtoggle" x="0" y="-9.5" width="198.1875" height="19" style="fill: rgb(0, 0, 0); fill-opacity: 0;"/></g></g></g><rect class="scrollbar" rx="20" ry="3" width="0" height="0" style="fill: rgb(128, 139, 164); fill-opacity: 1;" x="0" y="0"/></g><g class="g-gtitle"><text class="gtitle" x="70" y="50" text-anchor="start" dy="0em" style="opacity: 1; font-family: 'Open Sans', verdana, arial, sans-serif; font-size: 17px; fill: rgb(42, 63, 95); fill-opacity: 1; white-space: pre;">AMD Equity Curve Comparison</text></g><g class="g-xtitle"><text class="xtitle" x="700" y="610.3" text-anchor="middle" style="opacity: 1; font-family: 'Open Sans', verdana, arial, sans-serif; font-size: 14px; fill: rgb(42, 63, 95); fill-opacity: 1; white-space: pre;">Date</text></g><g class="g-ytitle"><text class="ytitle" transform="rotate(-90,29.6,335)" x="29.6" y="335" text-anchor="middle" style="opacity: 1; font-family: 'Open Sans', verdana, arial, sans-serif; font-size: 14px; fill: rgb(42, 63, 95); fill-opacity: 1; white-space: pre;">Portfolio Value ($)</text></g></g></svg>